<svg xmlns="http://www.w3.org/2000/svg" version="1.1" width="149" height="25" viewBox="0 0 149 25" class="scratchblocks-style-scratch2"><defs><filter id="bevelFilter" x0="-50%" y0="-50%" width="200%" height="200%"><feGaussianBlur in="SourceAlpha" stdDeviation="1 1" result="blur-1"/><feFlood flood-color="#fff" flood-opacity="0.15" result="flood-2"/><feOffset in="blur-1" dx="1" dy="1" result="offset-3"/><feComposite k2="1" k3="-1" operator="arithmetic" in="SourceAlpha" in2="offset-3" result="comp-4"/><feComposite operator="in" in="flood-2" in2="comp-4" result="comp-5"/><feFlood flood-color="#000" flood-opacity="0.7" result="flood-6"/><feOffset in="blur-1" dx="-1" dy="-1" result="offset-7"/><feComposite k2="1" k3="-1" operator="arithmetic" in="SourceAlpha" in2="offset-7" result="comp-8"/><feComposite operator="in" in="flood-6" in2="comp-8" result="comp-9"/><feMerge result="merge-10"><feMergeNode in="SourceGraphic"/><feMergeNode in="comp-5"/><feMergeNode in="comp-9"/></feMerge></filter><filter id="inputBevelFilter" x0="-50%" y0="-50%" width="200%" height="200%"><feGaussianBlur in="SourceAlpha" stdDeviation="1 1" result="blur-1"/><feFlood flood-color="#fff" flood-opacity="0.15" result="flood-2"/><feOffset in="blur-1" dx="-1" dy="-1" result="offset-3"/><feComposite k2="1" k3="-1" operator="arithmetic" in="SourceAlpha" in2="offset-3" result="comp-4"/><feComposite operator="in" in="flood-2" in2="comp-4" result="comp-5"/><feFlood flood-color="#000" flood-opacity="0.7" result="flood-6"/><feOffset in="blur-1" dx="1" dy="1" result="offset-7"/><feComposite k2="1" k3="-1" operator="arithmetic" in="SourceAlpha" in2="offset-7" result="comp-8"/><feComposite operator="in" in="flood-6" in2="comp-8" result="comp-9"/><feMerge result="merge-10"><feMergeNode in="SourceGraphic"/><feMergeNode in="comp-5"/><feMergeNode in="comp-9"/></feMerge></filter><filter id="inputDarkFilter" x0="-50%" y0="-50%" width="200%" height="200%"><feFlood flood-color="#000" flood-opacity="0.2" result="flood-1"/><feComposite operator="in" in="flood-1" in2="SourceAlpha" result="comp-2"/><feMerge result="merge-3"><feMergeNode in="SourceGraphic"/><feMergeNode in="comp-2"/></feMerge></filter><path d="M1.504 21L0 19.493 4.567 0h1.948l-.5 2.418s1.002-.502 3.006 0c2.006.503 3.008 2.01 6.517 2.01 3.508 0 4.463-.545 4.463-.545l-.823 9.892s-2.137 1.005-5.144.696c-3.007-.307-3.007-2.007-6.014-2.51-3.008-.502-4.512.503-4.512.503L1.504 21z" fill="#3f8d15" id="greenFlag"/><polygon points="6.3,0.4725 12.516,0.4725 18.585,6.3 18.585,12.495 12.495,18.585 6.3,18.585 0.483,12.495 0.483,6.3  " fill="#bb0010" id="stopSign"/><path d="M6.724 0C3.01 0 0 2.91 0 6.5c0 2.316 1.253 4.35 3.14 5.5H5.17v-1.256C3.364 10.126 2.07 8.46 2.07 6.5 2.07 4.015 4.152 2 6.723 2c1.14 0 2.184.396 2.993 1.053L8.31 4.13c-.45.344-.398.826.11 1.08L15 8.5 13.858.992c-.083-.547-.514-.714-.963-.37l-1.532 1.172A6.825 6.825 0 0 0 6.723 0z" fill="#fff" id="turnRight"/><path d="M3.637 1.794A6.825 6.825 0 0 1 8.277 0C11.99 0 15 2.91 15 6.5c0 2.316-1.253 4.35-3.14 5.5H9.83v-1.256c1.808-.618 3.103-2.285 3.103-4.244 0-2.485-2.083-4.5-4.654-4.5-1.14 0-2.184.396-2.993 1.053L6.69 4.13c.45.344.398.826-.11 1.08L0 8.5 1.142.992c.083-.547.514-.714.963-.37l1.532 1.172z" fill="#fff" id="turnLeft"/><path d="M0 0L4 4L0 8Z" fill="#111" id="addInput"/><path d="M4 0L4 8L0 4Z" fill="#111" id="delInput"/><g id="loopArrow"><path d="M8 0l2 -2l0 -3l3 0l-4 -5l-4 5l3 0l0 3l-8 0l0 2" fill="#000" opacity="0.3"/><path d="M8 0l2 -2l0 -3l3 0l-4 -5l-4 5l3 0l0 3l-8 0l0 2" fill="#fff" opacity="0.9" transform="translate(-1 -1)"/></g><g id="list"><rect x="0" y="0" width="12" height="14" fill="#000" opacity="0.25"/><rect x="1" y="1" width="1" height="13" fill="#fff"/><rect x="11" y="1" width="1" height="13" fill="#fff"/><rect x="2" y="1" width="9" height="1" fill="#fff"/><rect x="2" y="5" width="9" height="1" fill="#fff"/><rect x="2" y="9" width="9" height="1" fill="#fff"/><rect x="2" y="13" width="9" height="1" fill="#fff"/><rect x="2" y="2" width="9" height="2" fill="#ea8d1c"/><rect x="2" y="6" width="9" height="2" fill="#ea8d1c"/><rect x="2" y="10" width="9" height="2" fill="#ea8d1c"/><rect x="11" y="0" width="1" height="1" fill="#ea8d1c"/><rect x="0" y="13" width="1" height="1" fill="#ea8d1c"/></g><style><![CDATA[.sb-label{font-family:Lucida Grande,Verdana,Arial,DejaVu Sans,sans-serif;font-weight:700;fill:#fff;font-size:10px;word-spacing:1px}.sb-obsolete{fill:#d42828}.sb-motion{fill:#4a6cd4}.sb-looks{fill:#8a55d7}.sb-sound{fill:#bb42c3}.sb-pen{fill:#0e9a6c}.sb-events{fill:#c88330}.sb-control{fill:#e1a91a}.sb-sensing{fill:#2ca5e2}.sb-operators{fill:#5cb712}.sb-variables{fill:#ee7d16}.sb-list{fill:#cc5b22}.sb-custom{fill:#632d99}.sb-custom-arg{fill:#5947b1}.sb-extension{fill:#4b4a60}.sb-grey{fill:#969696}.sb-bevel{filter:url(#bevelFilter)}.sb-input{filter:url(#inputBevelFilter)}.sb-input-number,.sb-input-number-dropdown,.sb-input-string{fill:#fff}.sb-literal-dropdown,.sb-literal-number,.sb-literal-number-dropdown,.sb-literal-string{font-weight:400;font-size:9px;word-spacing:0}.sb-literal-number,.sb-literal-number-dropdown,.sb-literal-string{fill:#000}.sb-darker{filter:url(#inputDarkFilter)}.sb-outline{stroke:#fff;stroke-opacity:.2;stroke-width:2;fill:none}.sb-comment,.sb-define-hat-cap{stroke:#632d99;stroke-width:1;fill:#8e2ec2}.sb-comment{fill:#ffffa5;stroke:#d0d1d2}.sb-comment-line{fill:#ffff80}.sb-comment-label{font-family:Helvetica,Arial,DejaVu Sans,sans-serif;font-weight:700;fill:#5c5d5f;word-spacing:0;font-size:12px}.sb-diff{fill:none;stroke:#000}.sb-diff-ins{stroke-width:2px}.sb-diff-del{stroke-width:3px}]]></style></defs><g><g transform="translate(0 0)"><g transform="translate(2 0)"><path class="sb-motion sb-bevel" d="M 0 3&#10;      L 3 0&#10;      L 13 0&#10;      L 16 3&#10;      L 24 3&#10;      L 27 0&#10;      L 142 0&#10;      L 145 3 L 145 19 L 142 22 L 27 22 L 24 25 L 16 25 L 13 22 L 3 22 L 0 19 Z"/><text class="sb-label sb-" x="0" y="10" transform="translate(6 5)">将旋转方式设为</text><g transform="translate(80 4)"><g width="59" height="14" class="sb-input sb-input-dropdown"><rect x="0" y="0" width="59" height="14" class="sb-motion sb-darker"/></g><text class="sb-label sb-literal-dropdown" x="0" y="10" transform="translate(4 0)">左-右翻转</text><polygon points="7 0 3.5 4 0 0" fill="#000" opacity="0.6" transform="translate(49 5)"/></g></g></g></g></svg>