<?xml version="1.0" encoding="UTF-8" standalone="no"?>
<svg
   xmlns:dc="http://purl.org/dc/elements/1.1/"
   xmlns:cc="http://creativecommons.org/ns#"
   xmlns:rdf="http://www.w3.org/1999/02/22-rdf-syntax-ns#"
   xmlns:svg="http://www.w3.org/2000/svg"
   xmlns="http://www.w3.org/2000/svg"
   id="svg110"
   height="97.830002mm"
   width="124.27mm"
   version="1.0">
  <metadata
     id="metadata114">
    <rdf:RDF>
      <cc:Work
         rdf:about="">
        <dc:format>image/svg+xml</dc:format>
        <dc:type
           rdf:resource="http://purl.org/dc/dcmitype/StillImage" />
      </cc:Work>
    </rdf:RDF>
  </metadata>
  <defs
     id="defs36">
    <clipPath
       id="clipEmfPath1"
       clipPathUnits="userSpaceOnUse">
      <path
         id="path2"
         d="M 5.7551448,-7.9932567 L 4801.7092,-7.9932567 L 4801.7092,4787.9608 L 5.7551448,4787.9608 z" />
    </clipPath>
    <clipPath
       id="clipEmfPath2"
       clipPathUnits="userSpaceOnUse">
      <path
         id="path5"
         d="M 274.96803,155.70864 L 4801.7092,155.70864 L 4801.7092,4787.9608 L 274.96803,4787.9608 z" />
    </clipPath>
    <clipPath
       id="clipEmfPath3"
       clipPathUnits="userSpaceOnUse">
      <path
         id="path8"
         d="M 274.96803,155.70864 L 315.09418,155.70864 L 315.09418,181.44693 L 274.96803,181.44693 z" />
    </clipPath>
    <clipPath
       id="clipEmfPath4"
       clipPathUnits="userSpaceOnUse">
      <path
         id="path11"
         d="M 274.16871,241.07662 L 4801.7092,241.07662 L 4801.7092,4787.9608 L 274.16871,4787.9608 z" />
    </clipPath>
    <clipPath
       id="clipEmfPath5"
       clipPathUnits="userSpaceOnUse">
      <path
         id="path14"
         d="M 274.16871,241.07662 L 310.93769,241.07662 L 310.93769,266.81491 L 274.16871,266.81491 z" />
    </clipPath>
    <clipPath
       id="clipEmfPath6"
       clipPathUnits="userSpaceOnUse">
      <path
         id="path17"
         d="M 69.381468,112.06546 L 4801.7092,112.06546 L 4801.7092,4787.9608 L 69.381468,4787.9608 z" />
    </clipPath>
    <clipPath
       id="clipEmfPath7"
       clipPathUnits="userSpaceOnUse">
      <path
         id="path20"
         d="M 69.381468,112.06546 L 99.755844,112.06546 L 99.755844,137.80375 L 69.381468,137.80375 z" />
    </clipPath>
    <clipPath
       id="clipEmfPath8"
       clipPathUnits="userSpaceOnUse">
      <path
         id="path23"
         d="M 69.381468,0 L 4801.7092,0 L 4801.7092,4787.9608 L 69.381468,4787.9608 z" />
    </clipPath>
    <clipPath
       id="clipEmfPath9"
       clipPathUnits="userSpaceOnUse">
      <path
         id="path26"
         d="M 69.381468,0 L 99.755844,0 L 99.755844,25.738287 L 69.381468,25.738287 z" />
    </clipPath>
    <clipPath
       id="clipEmfPath10"
       clipPathUnits="userSpaceOnUse">
      <path
         id="path29"
         d="M 355.54006,331.40042 L 4801.7092,331.40042 L 4801.7092,4787.9608 L 355.54006,4787.9608 z" />
    </clipPath>
    <clipPath
       id="clipEmfPath11"
       clipPathUnits="userSpaceOnUse">
      <path
         id="path32"
         d="M 355.54006,331.40042 L 385.91443,331.40042 L 385.91443,357.13871 L 355.54006,357.13871 z" />
    </clipPath>
    <pattern
       y="0"
       x="0"
       height="6"
       width="6"
       patternUnits="userSpaceOnUse"
       id="EMFhbasepattern" />
  </defs>
  <path
     id="path38"
     d="  M 13.828334,266.87486   L 466.82618,266.87486  "
     style="fill:none;stroke:#00ffff;stroke-width:2.4179602px;stroke-linecap:butt;stroke-linejoin:miter;stroke-miterlimit:10;stroke-dasharray:none;stroke-opacity:1;" />
  <path
     id="path40"
     d="  M 13.828334,153.59043   L 466.82618,153.59043  "
     style="fill:none;stroke:#00ffff;stroke-width:2.4179602px;stroke-linecap:butt;stroke-linejoin:miter;stroke-miterlimit:10;stroke-dasharray:none;stroke-opacity:1;" />
  <path
     id="path42"
     d="  M 91.203059,20.222939   L 268.68333,153.58044  "
     style="fill:none;stroke:#000080;stroke-width:2.4179602px;stroke-linecap:butt;stroke-linejoin:miter;stroke-miterlimit:10;stroke-dasharray:none;stroke-opacity:1;" />
  <path
     id="path44"
     d="  M 268.68333,153.58044   L 268.68333,266.87486  "
     style="fill:none;stroke:#000080;stroke-width:2.4179602px;stroke-linecap:butt;stroke-linejoin:miter;stroke-miterlimit:10;stroke-dasharray:none;stroke-opacity:1;" />
  <path
     id="path46"
     d="  M 91.922452,132.54818   L 103.52267,141.26083   L 102.07389,143.19919   L 90.473674,134.47655   L 91.922452,132.54818  z    M 111.25614,147.07592   L 122.85636,155.78857   L 121.40758,157.71695   L 109.80736,149.0043   L 111.25614,147.07592  z    M 130.58983,161.60367   L 142.19005,170.31632   L 140.74127,172.24469   L 129.14105,163.53204   L 130.58983,161.60367  z    M 149.92352,176.12142   L 161.52374,184.84406   L 160.06497,186.77243   L 148.47474,178.05978   L 149.92352,176.12142  z    M 169.25721,190.64916   L 180.85742,199.36181   L 179.39866,201.30018   L 167.79844,192.58753   L 169.25721,190.64916  z    M 188.5909,205.17691   L 200.18112,213.88956   L 198.73235,215.82792   L 187.13213,207.11527   L 188.5909,205.17691  z    M 207.9146,219.70465   L 219.51481,228.4173   L 218.06603,230.35567   L 206.46582,221.63303   L 207.9146,219.70465  z    M 227.24829,234.2324   L 238.8485,242.94505   L 237.39972,244.87342   L 225.79951,236.16077   L 227.24829,234.2324  z    M 246.58198,248.76014   L 258.18219,257.47279   L 256.73341,259.40116   L 245.1332,250.68851   L 246.58198,248.76014  z    M 265.91567,263.27789   L 269.40273,265.90568   L 267.95395,267.83405   L 264.46689,265.21626   L 265.91567,263.27789  z   "
     style="fill:#000080;fill-rule:nonzero;fill-opacity:1;stroke:#000080;stroke-width:0.15986514px;stroke-linecap:butt;stroke-linejoin:bevel;stroke-miterlimit:4;stroke-dasharray:none;stroke-opacity:1;" />
  <path
     id="path48"
     d="  M 268.69332,266.87486   L 349.14545,327.32386  "
     style="fill:none;stroke:#000080;stroke-width:2.4179602px;stroke-linecap:butt;stroke-linejoin:miter;stroke-miterlimit:10;stroke-dasharray:none;stroke-opacity:1;" />
  <path
     id="path50"
     d="  M 271.90062,153.58044   C 271.90062,155.35894 270.46183,156.80771 268.68333,156.80771   C 266.89484,156.80771 265.45606,155.35894 265.45606,153.58044   C 265.45606,151.80194 266.89484,150.35316 268.68333,150.35316   C 270.46183,150.35316 271.90062,151.80194 271.90062,153.58044   z "
     style="fill:#ff0000;fill-rule:evenodd;fill-opacity:1;stroke:none;" />
  <path
     id="path52"
     d="  M 271.90062,153.58044   C 271.90062,155.35894 270.46183,156.80771 268.68333,156.80771   C 266.89484,156.80771 265.45606,155.35894 265.45606,153.58044   C 265.45606,151.80194 266.89484,150.35316 268.68333,150.35316   C 270.46183,150.35316 271.90062,151.80194 271.90062,153.58044  "
     style="fill:none;stroke:#000000;stroke-width:1.0091487px;stroke-linecap:butt;stroke-linejoin:miter;stroke-miterlimit:10;stroke-dasharray:none;stroke-opacity:1;" />
  <g
     id="g60"
     clip-path="url(#clipEmfPath3)">
    <text
       id="text58"
       y="13.499438"
       x="0.000000"
       transform="matrix(1.000000,-0.000000,0.000000,1.000000,274.968031,155.708641)"
       style="font-size:19.312500px;font-style:italic;font-variant:normal;font-weight:700;font-stretch:Condensed;line-height:125.000000%;letter-spacing:0px;word-spacing:0px;fill:#000000;fill-opacity:1;stroke:none;font-family:Times New Roman;text-align:start;text-anchor:start;"
       xml:space="preserve"><tspan
         id="tspan56"
         y="13.499438"
         x="0.000000"><tspan
           id="tspan54"
           style="fill:#000000;font-size:19.312500px;font-style:italic;font-variant:normal;font-weight:700;font-stretch:Condensed;font-family:Times New Roman;"
           dy="0.000000"
           dx="0.000000">M'</tspan></tspan></text>
  </g>
  <path
     id="path62"
     d="  M 5.7551448,-7.9932567   M 5.7551448,-7.9932567   M 271.90062,266.87486   C 271.90062,268.65336 270.46183,270.09214 268.68333,270.09214   C 266.89484,270.09214 265.45606,268.65336 265.45606,266.87486   C 265.45606,265.08637 266.89484,263.64758 268.68333,263.64758   C 270.46183,263.64758 271.90062,265.08637 271.90062,266.87486   z "
     style="fill:#ff0000;fill-rule:evenodd;fill-opacity:1;stroke:none;" />
  <path
     id="path64"
     d="  M 271.90062,266.87486   C 271.90062,268.65336 270.46183,270.09214 268.68333,270.09214   C 266.89484,270.09214 265.45606,268.65336 265.45606,266.87486   C 265.45606,265.08637 266.89484,263.64758 268.68333,263.64758   C 270.46183,263.64758 271.90062,265.08637 271.90062,266.87486  "
     style="fill:none;stroke:#000000;stroke-width:1.0091487px;stroke-linecap:butt;stroke-linejoin:miter;stroke-miterlimit:10;stroke-dasharray:none;stroke-opacity:1;" />
  <g
     id="g72"
     clip-path="url(#clipEmfPath5)">
    <text
       id="text70"
       y="13.499438"
       x="0.000000"
       transform="matrix(1.000000,-0.000000,0.000000,1.000000,274.168705,241.076623)"
       style="font-size:19.312500px;font-style:italic;font-variant:normal;font-weight:700;font-stretch:Condensed;line-height:125.000000%;letter-spacing:0px;word-spacing:0px;fill:#000000;fill-opacity:1;stroke:none;font-family:Times New Roman;text-align:start;text-anchor:start;"
       xml:space="preserve"><tspan
         id="tspan68"
         y="13.499438"
         x="0.000000"><tspan
           id="tspan66"
           style="fill:#000000;font-size:19.312500px;font-style:italic;font-variant:normal;font-weight:700;font-stretch:Condensed;font-family:Times New Roman;"
           dy="0.000000"
           dx="0.000000">N'</tspan></tspan></text>
  </g>
  <path
     id="path74"
     d="  M 5.7551448,-7.9932567   M 5.7551448,-7.9932567   M 94.420345,133.51736   C 94.420345,135.29586 92.981559,136.73465 91.203059,136.73465   C 89.42456,136.73465 87.975782,135.29586 87.975782,133.51736   C 87.975782,131.72887 89.42456,130.29008 91.203059,130.29008   C 92.981559,130.29008 94.420345,131.72887 94.420345,133.51736   z "
     style="fill:#ff0000;fill-rule:evenodd;fill-opacity:1;stroke:none;" />
  <path
     id="path76"
     d="  M 94.420345,133.51736   C 94.420345,135.29586 92.981559,136.73465 91.203059,136.73465   C 89.42456,136.73465 87.975782,135.29586 87.975782,133.51736   C 87.975782,131.72887 89.42456,130.29008 91.203059,130.29008   C 92.981559,130.29008 94.420345,131.72887 94.420345,133.51736  "
     style="fill:none;stroke:#000000;stroke-width:1.0091487px;stroke-linecap:butt;stroke-linejoin:miter;stroke-miterlimit:10;stroke-dasharray:none;stroke-opacity:1;" />
  <g
     id="g84"
     clip-path="url(#clipEmfPath7)">
    <text
       id="text82"
       y="13.499438"
       x="0.000000"
       transform="matrix(1.000000,-0.000000,0.000000,1.000000,69.381468,112.065459)"
       style="font-size:19.312500px;font-style:italic;font-variant:normal;font-weight:700;font-stretch:Condensed;line-height:125.000000%;letter-spacing:0px;word-spacing:0px;fill:#000000;fill-opacity:1;stroke:none;font-family:Times New Roman;text-align:start;text-anchor:start;"
       xml:space="preserve"><tspan
         id="tspan80"
         y="13.499438"
         x="0.000000"><tspan
           id="tspan78"
           style="fill:#000000;font-size:19.312500px;font-style:italic;font-variant:normal;font-weight:700;font-stretch:Condensed;font-family:Times New Roman;"
           dy="0.000000"
           dx="0.000000">C</tspan></tspan></text>
  </g>
  <path
     id="path86"
     d="  M 5.7551448,-7.9932567   M 5.7551448,-7.9932567   M 94.420345,20.222939   C 94.420345,22.001439 92.981559,23.450217 91.203059,23.450217   C 89.42456,23.450217 87.975782,22.001439 87.975782,20.222939   C 87.975782,18.44444 89.42456,16.995662 91.203059,16.995662   C 92.981559,16.995662 94.420345,18.44444 94.420345,20.222939   z "
     style="fill:#ff0000;fill-rule:evenodd;fill-opacity:1;stroke:none;" />
  <path
     id="path88"
     d="  M 94.420345,20.222939   C 94.420345,22.001439 92.981559,23.450217 91.203059,23.450217   C 89.42456,23.450217 87.975782,22.001439 87.975782,20.222939   C 87.975782,18.44444 89.42456,16.995662 91.203059,16.995662   C 92.981559,16.995662 94.420345,18.44444 94.420345,20.222939  "
     style="fill:none;stroke:#000000;stroke-width:1.0091487px;stroke-linecap:butt;stroke-linejoin:miter;stroke-miterlimit:10;stroke-dasharray:none;stroke-opacity:1;" />
  <g
     id="g96"
     clip-path="url(#clipEmfPath9)">
    <text
       id="text94"
       y="13.499438"
       x="0.000000"
       transform="matrix(1.000000,-0.000000,0.000000,1.000000,69.381468,0.000000)"
       style="font-size:19.312500px;font-style:italic;font-variant:normal;font-weight:700;font-stretch:Condensed;line-height:125.000000%;letter-spacing:0px;word-spacing:0px;fill:#000000;fill-opacity:1;stroke:none;font-family:Times New Roman;text-align:start;text-anchor:start;"
       xml:space="preserve"><tspan
         id="tspan92"
         y="13.499438"
         x="0.000000"><tspan
           id="tspan90"
           style="fill:#000000;font-size:19.312500px;font-style:italic;font-variant:normal;font-weight:700;font-stretch:Condensed;font-family:Times New Roman;"
           dy="0.000000"
           dx="0.000000">A</tspan></tspan></text>
  </g>
  <path
     id="path98"
     d="  M 5.7551448,-7.9932567   M 5.7551448,-7.9932567   M 352.36274,327.32386   C 352.36274,329.10236 350.92395,330.56113 349.14545,330.56113   C 347.36695,330.56113 345.90818,329.10236 345.90818,327.32386   C 345.90818,325.54536 347.36695,324.10658 349.14545,324.10658   C 350.92395,324.10658 352.36274,325.54536 352.36274,327.32386   z "
     style="fill:#ff0000;fill-rule:evenodd;fill-opacity:1;stroke:none;" />
  <path
     id="path100"
     d="  M 352.36274,327.32386   C 352.36274,329.10236 350.92395,330.56113 349.14545,330.56113   C 347.36695,330.56113 345.90818,329.10236 345.90818,327.32386   C 345.90818,325.54536 347.36695,324.10658 349.14545,324.10658   C 350.92395,324.10658 352.36274,325.54536 352.36274,327.32386  "
     style="fill:none;stroke:#000000;stroke-width:0.99915707px;stroke-linecap:butt;stroke-linejoin:miter;stroke-miterlimit:10;stroke-dasharray:none;stroke-opacity:1;" />
  <g
     id="g108"
     clip-path="url(#clipEmfPath11)">
    <text
       id="text106"
       y="13.499438"
       x="0.000000"
       transform="matrix(1.000000,-0.000000,0.000000,1.000000,355.540059,331.400424)"
       style="font-size:19.312500px;font-style:italic;font-variant:normal;font-weight:700;font-stretch:Condensed;line-height:125.000000%;letter-spacing:0px;word-spacing:0px;fill:#000000;fill-opacity:1;stroke:none;font-family:Times New Roman;text-align:start;text-anchor:start;"
       xml:space="preserve"><tspan
         id="tspan104"
         y="13.499438"
         x="0.000000"><tspan
           id="tspan102"
           style="fill:#000000;font-size:19.312500px;font-style:italic;font-variant:normal;font-weight:700;font-stretch:Condensed;font-family:Times New Roman;"
           dy="0.000000"
           dx="0.000000">B</tspan></tspan></text>
  </g>
</svg>
