<?xml version="1.0" encoding="UTF-8" standalone="no"?>
<svg
   xmlns:dc="http://purl.org/dc/elements/1.1/"
   xmlns:cc="http://creativecommons.org/ns#"
   xmlns:rdf="http://www.w3.org/1999/02/22-rdf-syntax-ns#"
   xmlns:svg="http://www.w3.org/2000/svg"
   xmlns="http://www.w3.org/2000/svg"
   id="svg88"
   height="60.75mm"
   width="124.27mm"
   version="1.0">
  <metadata
     id="metadata92">
    <rdf:RDF>
      <cc:Work
         rdf:about="">
        <dc:format>image/svg+xml</dc:format>
        <dc:type
           rdf:resource="http://purl.org/dc/dcmitype/StillImage" />
      </cc:Work>
    </rdf:RDF>
  </metadata>
  <defs
     id="defs30">
    <clipPath
       id="clipEmfPath1"
       clipPathUnits="userSpaceOnUse">
      <path
         id="path2"
         d="M 5.7551448,5.7551448 L 4801.7092,5.7551448 L 4801.7092,4801.7092 L 5.7551448,4801.7092 z" />
    </clipPath>
    <clipPath
       id="clipEmfPath2"
       clipPathUnits="userSpaceOnUse">
      <path
         id="path5"
         d="M 25.898152,17.904895 L 4801.7092,17.904895 L 4801.7092,4801.7092 L 25.898152,4801.7092 z" />
    </clipPath>
    <clipPath
       id="clipEmfPath3"
       clipPathUnits="userSpaceOnUse">
      <path
         id="path8"
         d="M 25.898152,17.904895 L 56.272527,17.904895 L 56.272527,43.643182 L 25.898152,43.643182 z" />
    </clipPath>
    <clipPath
       id="clipEmfPath4"
       clipPathUnits="userSpaceOnUse">
      <path
         id="path11"
         d="M 415.96908,124.21521 L 4801.7092,124.21521 L 4801.7092,4801.7092 L 415.96908,4801.7092 z" />
    </clipPath>
    <clipPath
       id="clipEmfPath5"
       clipPathUnits="userSpaceOnUse">
      <path
         id="path14"
         d="M 415.96908,124.21521 L 446.34346,124.21521 L 446.34346,149.9535 L 415.96908,149.9535 z" />
    </clipPath>
    <clipPath
       id="clipEmfPath6"
       clipPathUnits="userSpaceOnUse">
      <path
         id="path17"
         d="M 133.96698,204.78724 L 4801.7092,204.78724 L 4801.7092,4801.7092 L 133.96698,4801.7092 z" />
    </clipPath>
    <clipPath
       id="clipEmfPath7"
       clipPathUnits="userSpaceOnUse">
      <path
         id="path20"
         d="M 133.96698,204.78724 L 164.34136,204.78724 L 164.34136,230.52552 L 133.96698,230.52552 z" />
    </clipPath>
    <clipPath
       id="clipEmfPath8"
       clipPathUnits="userSpaceOnUse">
      <path
         id="path23"
         d="M 203.18859,204.78724 L 4801.7092,204.78724 L 4801.7092,4801.7092 L 203.18859,4801.7092 z" />
    </clipPath>
    <clipPath
       id="clipEmfPath9"
       clipPathUnits="userSpaceOnUse">
      <path
         id="path26"
         d="M 203.18859,204.78724 L 234.52215,204.78724 L 234.52215,230.52552 L 203.18859,230.52552 z" />
    </clipPath>
    <pattern
       y="0"
       x="0"
       height="6"
       width="6"
       patternUnits="userSpaceOnUse"
       id="EMFhbasepattern" />
  </defs>
  <path
     id="path32"
     d="  M 13.828334,201.19027   L 466.82618,201.19027  "
     style="fill:none;stroke:#00ffff;stroke-width:2.4179602px;stroke-linecap:butt;stroke-linejoin:miter;stroke-miterlimit:10;stroke-dasharray:none;stroke-opacity:1;" />
  <path
     id="path34"
     d="  M 47.669785,13.818343   L 141.17091,201.18028  "
     style="fill:none;stroke:#000080;stroke-width:2.4179602px;stroke-linecap:butt;stroke-linejoin:miter;stroke-miterlimit:10;stroke-dasharray:none;stroke-opacity:1;" />
  <path
     id="path36"
     d="  M 211.30174,201.19027   L 409.59446,120.21858  "
     style="fill:none;stroke:#000080;stroke-width:2.4179602px;stroke-linecap:butt;stroke-linejoin:miter;stroke-miterlimit:10;stroke-dasharray:none;stroke-opacity:1;" />
  <path
     id="path38"
     d="  M 211.30174,201.18028   L 141.17091,201.18028  "
     style="fill:none;stroke:#000080;stroke-width:2.4179602px;stroke-linecap:butt;stroke-linejoin:miter;stroke-miterlimit:10;stroke-dasharray:none;stroke-opacity:1;" />
  <path
     id="path40"
     d="  M 50.897062,13.818343   C 50.897062,15.596842 49.458276,17.04562 47.669785,17.04562   C 45.891285,17.04562 44.452499,15.596842 44.452499,13.818343   C 44.452499,12.039843 45.891285,10.601057 47.669785,10.601057   C 49.458276,10.601057 50.897062,12.039843 50.897062,13.818343   z "
     style="fill:#ff0000;fill-rule:evenodd;fill-opacity:1;stroke:none;" />
  <path
     id="path42"
     d="  M 50.897062,13.818343   C 50.897062,15.596842 49.458276,17.04562 47.669785,17.04562   C 45.891285,17.04562 44.452499,15.596842 44.452499,13.818343   C 44.452499,12.039843 45.891285,10.601057 47.669785,10.601057   C 49.458276,10.601057 50.897062,12.039843 50.897062,13.818343  "
     style="fill:none;stroke:#000000;stroke-width:1.0091487px;stroke-linecap:butt;stroke-linejoin:miter;stroke-miterlimit:10;stroke-dasharray:none;stroke-opacity:1;" />
  <g
     id="g50"
     clip-path="url(#clipEmfPath3)">
    <text
       id="text48"
       y="13.499438"
       x="0.000000"
       transform="matrix(1.000000,-0.000000,0.000000,1.000000,25.898152,17.904895)"
       style="font-size:19.312500px;font-style:italic;font-variant:normal;font-weight:700;font-stretch:Condensed;line-height:125.000000%;letter-spacing:0px;word-spacing:0px;fill:#000000;fill-opacity:1;stroke:none;font-family:Times New Roman;text-align:start;text-anchor:start;"
       xml:space="preserve"><tspan
         id="tspan46"
         y="13.499438"
         x="0.000000"><tspan
           id="tspan44"
           style="fill:#000000;font-size:19.312500px;font-style:italic;font-variant:normal;font-weight:700;font-stretch:Condensed;font-family:Times New Roman;"
           dy="0.000000"
           dx="0.000000">A</tspan></tspan></text>
  </g>
  <path
     id="path52"
     d="  M 5.7551448,5.7551448   M 5.7551448,5.7551448   M 412.81174,120.21858   C 412.81174,121.99708 411.37296,123.45585 409.59446,123.45585   C 407.81596,123.45585 406.37717,121.99708 406.37717,120.21858   C 406.37717,118.44008 407.81596,117.0013 409.59446,117.0013   C 411.37296,117.0013 412.81174,118.44008 412.81174,120.21858   z "
     style="fill:#ff0000;fill-rule:evenodd;fill-opacity:1;stroke:none;" />
  <path
     id="path54"
     d="  M 412.81174,120.21858   C 412.81174,121.99708 411.37296,123.45585 409.59446,123.45585   C 407.81596,123.45585 406.37717,121.99708 406.37717,120.21858   C 406.37717,118.44008 407.81596,117.0013 409.59446,117.0013   C 411.37296,117.0013 412.81174,118.44008 412.81174,120.21858  "
     style="fill:none;stroke:#000000;stroke-width:0.99915707px;stroke-linecap:butt;stroke-linejoin:miter;stroke-miterlimit:10;stroke-dasharray:none;stroke-opacity:1;" />
  <g
     id="g62"
     clip-path="url(#clipEmfPath5)">
    <text
       id="text60"
       y="13.499438"
       x="0.000000"
       transform="matrix(1.000000,-0.000000,0.000000,1.000000,415.969080,124.215209)"
       style="font-size:19.312500px;font-style:italic;font-variant:normal;font-weight:700;font-stretch:Condensed;line-height:125.000000%;letter-spacing:0px;word-spacing:0px;fill:#000000;fill-opacity:1;stroke:none;font-family:Times New Roman;text-align:start;text-anchor:start;"
       xml:space="preserve"><tspan
         id="tspan58"
         y="13.499438"
         x="0.000000"><tspan
           id="tspan56"
           style="fill:#000000;font-size:19.312500px;font-style:italic;font-variant:normal;font-weight:700;font-stretch:Condensed;font-family:Times New Roman;"
           dy="0.000000"
           dx="0.000000">B</tspan></tspan></text>
  </g>
  <path
     id="path64"
     d="  M 5.7551448,5.7551448   M 5.7551448,5.7551448   M 144.39818,201.18028   C 144.39818,202.96877 142.9594,204.40756 141.17091,204.40756   C 139.39241,204.40756 137.95362,202.96877 137.95362,201.18028   C 137.95362,199.40178 139.39241,197.96299 141.17091,197.96299   C 142.9594,197.96299 144.39818,199.40178 144.39818,201.18028   z "
     style="fill:#ff0000;fill-rule:evenodd;fill-opacity:1;stroke:none;" />
  <path
     id="path66"
     d="  M 144.39818,201.18028   C 144.39818,202.96877 142.9594,204.40756 141.17091,204.40756   C 139.39241,204.40756 137.95362,202.96877 137.95362,201.18028   C 137.95362,199.40178 139.39241,197.96299 141.17091,197.96299   C 142.9594,197.96299 144.39818,199.40178 144.39818,201.18028  "
     style="fill:none;stroke:#000000;stroke-width:1.0091487px;stroke-linecap:butt;stroke-linejoin:miter;stroke-miterlimit:10;stroke-dasharray:none;stroke-opacity:1;" />
  <g
     id="g74"
     clip-path="url(#clipEmfPath7)">
    <text
       id="text72"
       y="13.499438"
       x="0.000000"
       transform="matrix(1.000000,-0.000000,0.000000,1.000000,133.966983,204.787237)"
       style="font-size:19.312500px;font-style:italic;font-variant:normal;font-weight:700;font-stretch:Condensed;line-height:125.000000%;letter-spacing:0px;word-spacing:0px;fill:#000000;fill-opacity:1;stroke:none;font-family:Times New Roman;text-align:start;text-anchor:start;"
       xml:space="preserve"><tspan
         id="tspan70"
         y="13.499438"
         x="0.000000"><tspan
           id="tspan68"
           style="fill:#000000;font-size:19.312500px;font-style:italic;font-variant:normal;font-weight:700;font-stretch:Condensed;font-family:Times New Roman;"
           dy="0.000000"
           dx="0.000000">C</tspan></tspan></text>
  </g>
  <path
     id="path76"
     d="  M 5.7551448,5.7551448   M 5.7551448,5.7551448   M 214.52902,201.18028   C 214.52902,202.96877 213.08024,204.40756 211.30174,204.40756   C 209.52324,204.40756 208.07446,202.96877 208.07446,201.18028   C 208.07446,199.40178 209.52324,197.96299 211.30174,197.96299   C 213.08024,197.96299 214.52902,199.40178 214.52902,201.18028   z "
     style="fill:#ff0000;fill-rule:evenodd;fill-opacity:1;stroke:none;" />
  <path
     id="path78"
     d="  M 214.52902,201.18028   C 214.52902,202.96877 213.08024,204.40756 211.30174,204.40756   C 209.52324,204.40756 208.07446,202.96877 208.07446,201.18028   C 208.07446,199.40178 209.52324,197.96299 211.30174,197.96299   C 213.08024,197.96299 214.52902,199.40178 214.52902,201.18028  "
     style="fill:none;stroke:#000000;stroke-width:1.0091487px;stroke-linecap:butt;stroke-linejoin:miter;stroke-miterlimit:10;stroke-dasharray:none;stroke-opacity:1;" />
  <g
     id="g86"
     clip-path="url(#clipEmfPath9)">
    <text
       id="text84"
       y="13.499438"
       x="0.000000"
       transform="matrix(1.000000,-0.000000,0.000000,1.000000,203.188586,204.787237)"
       style="font-size:19.312500px;font-style:italic;font-variant:normal;font-weight:700;font-stretch:Condensed;line-height:125.000000%;letter-spacing:0px;word-spacing:0px;fill:#000000;fill-opacity:1;stroke:none;font-family:Times New Roman;text-align:start;text-anchor:start;"
       xml:space="preserve"><tspan
         id="tspan82"
         y="13.499438"
         x="0.000000"><tspan
           id="tspan80"
           style="fill:#000000;font-size:19.312500px;font-style:italic;font-variant:normal;font-weight:700;font-stretch:Condensed;font-family:Times New Roman;"
           dy="0.000000"
           dx="0.000000">D</tspan></tspan></text>
  </g>
</svg>
