<?xml version="1.0" encoding="UTF-8" standalone="no"?>
<svg
   xmlns:dc="http://purl.org/dc/elements/1.1/"
   xmlns:cc="http://creativecommons.org/ns#"
   xmlns:rdf="http://www.w3.org/1999/02/22-rdf-syntax-ns#"
   xmlns:svg="http://www.w3.org/2000/svg"
   xmlns="http://www.w3.org/2000/svg"
   id="svg64"
   height="115.3mm"
   width="115.73mm"
   version="1.0">
  <metadata
     id="metadata68">
    <rdf:RDF>
      <cc:Work
         rdf:about="">
        <dc:format>image/svg+xml</dc:format>
        <dc:type
           rdf:resource="http://purl.org/dc/dcmitype/StillImage" />
      </cc:Work>
    </rdf:RDF>
  </metadata>
  <defs
     id="defs18">
    <clipPath
       id="clipEmfPath1"
       clipPathUnits="userSpaceOnUse">
      <path
         id="path2"
         d="M -11.190559,-9.5919081 L 4784.7635,-9.5919081 L 4784.7635,4786.3621 L -11.190559,4786.3621 z" />
    </clipPath>
    <clipPath
       id="clipEmfPath2"
       clipPathUnits="userSpaceOnUse">
      <path
         id="path5"
         d="M 0,212.94036 L 4784.7635,212.94036 L 4784.7635,4786.3621 L 0,4786.3621 z" />
    </clipPath>
    <clipPath
       id="clipEmfPath3"
       clipPathUnits="userSpaceOnUse">
      <path
         id="path8"
         d="M 0,212.94036 L 55.153471,212.94036 L 55.153471,252.10732 L 0,252.10732 z" />
    </clipPath>
    <clipPath
       id="clipEmfPath4"
       clipPathUnits="userSpaceOnUse">
      <path
         id="path11"
         d="M 213.73968,0 L 4784.7635,0 L 4784.7635,4786.3621 L 213.73968,4786.3621 z" />
    </clipPath>
    <clipPath
       id="clipEmfPath5"
       clipPathUnits="userSpaceOnUse">
      <path
         id="path14"
         d="M 213.73968,0 L 268.89316,0 L 268.89316,39.166958 L 213.73968,39.166958 z" />
    </clipPath>
    <pattern
       y="0"
       x="0"
       height="6"
       width="6"
       patternUnits="userSpaceOnUse"
       id="EMFhbasepattern" />
  </defs>
  <path
     id="path20"
     d="  M 306.62133,151.59211   C 306.62133,194.79567 271.61086,229.80613 228.40731,229.80613   C 185.22374,229.80613 150.21328,194.79567 150.21328,151.59211   C 150.21328,108.40854 185.22374,73.39808 228.40731,73.39808   C 271.61086,73.39808 306.62133,108.40854 306.62133,151.59211  "
     style="fill:none;stroke:#000080;stroke-width:2.4179602px;stroke-linecap:butt;stroke-linejoin:miter;stroke-miterlimit:10;stroke-dasharray:none;stroke-opacity:1;" />
  <path
     id="path22"
     d="  M 228.40731,40.985424   L 39.596595,229.80613  "
     style="fill:none;stroke:#000080;stroke-width:2.4179602px;stroke-linecap:butt;stroke-linejoin:miter;stroke-miterlimit:10;stroke-dasharray:none;stroke-opacity:1;" />
  <path
     id="path24"
     d="  M 39.606587,229.80613   L 417.22802,229.80613  "
     style="fill:none;stroke:#000080;stroke-width:2.4179602px;stroke-linecap:butt;stroke-linejoin:miter;stroke-miterlimit:10;stroke-dasharray:none;stroke-opacity:1;" />
  <path
     id="path26"
     d="  M 228.40731,40.985424   L 417.22802,229.80613  "
     style="fill:none;stroke:#000080;stroke-width:2.4179602px;stroke-linecap:butt;stroke-linejoin:miter;stroke-miterlimit:10;stroke-dasharray:none;stroke-opacity:1;" />
  <path
     id="path28"
     d="  M 39.606587,229.80613   L 228.40731,418.62684  "
     style="fill:none;stroke:#000080;stroke-width:2.4179602px;stroke-linecap:butt;stroke-linejoin:miter;stroke-miterlimit:10;stroke-dasharray:none;stroke-opacity:1;" />
  <path
     id="path30"
     d="  M 228.40731,418.62684   L 417.22802,229.80613  "
     style="fill:none;stroke:#000080;stroke-width:2.4179602px;stroke-linecap:butt;stroke-linejoin:miter;stroke-miterlimit:10;stroke-dasharray:none;stroke-opacity:1;" />
  <g
     id="g38"
     clip-path="url(#clipEmfPath3)">
    <text
       id="text36"
       y="0.000000"
       x="0.000000"
       transform="matrix(1.000000,-0.000000,0.000000,1.000000,0.000000,212.940359)"
       style="font-size:29.125000px;font-style:normal;font-variant:normal;font-weight:400;font-stretch:Condensed;line-height:125.000000%;letter-spacing:0px;word-spacing:0px;fill:#000000;fill-opacity:1;stroke:none;font-family:Times New Roman;text-align:start;text-anchor:start;"
       xml:space="preserve"><tspan
         id="tspan34"
         y="25.000000"
         x="0.000000"><tspan
           id="tspan32"
           style="fill:#000000;font-size:29.125000px;font-style:normal;font-variant:normal;font-weight:400;font-stretch:Condensed;font-family:Times New Roman;"
           dy="0.000000"
           dx="0.000000">乙</tspan></tspan></text>
  </g>
  <g
     id="g46"
     clip-path="url(#clipEmfPath5)">
    <text
       id="text44"
       y="0.000000"
       x="0.000000"
       transform="matrix(1.000000,-0.000000,0.000000,1.000000,213.739685,0.000000)"
       style="font-size:29.125000px;font-style:normal;font-variant:normal;font-weight:400;font-stretch:Condensed;line-height:125.000000%;letter-spacing:0px;word-spacing:0px;fill:#000000;fill-opacity:1;stroke:none;font-family:Times New Roman;text-align:start;text-anchor:start;"
       xml:space="preserve"><tspan
         id="tspan42"
         y="25.000000"
         x="0.000000"><tspan
           id="tspan40"
           style="fill:#000000;font-size:29.125000px;font-style:normal;font-variant:normal;font-weight:400;font-stretch:Condensed;font-family:Times New Roman;"
           dy="0.000000"
           dx="0.000000">甲</tspan></tspan></text>
  </g>
  <path
     id="path48"
     d="  M -11.190559,-9.5919081   M -11.190559,-9.5919081   M 231.64458,418.62684   C 231.64458,420.40534 230.20579,421.84412 228.40731,421.84412   C 226.62881,421.84412 225.19002,420.40534 225.19002,418.62684   C 225.19002,416.84834 226.62881,415.40955 228.40731,415.40955   C 230.20579,415.40955 231.64458,416.84834 231.64458,418.62684   z "
     style="fill:#ff0000;fill-rule:evenodd;fill-opacity:1;stroke:none;" />
  <path
     id="path50"
     d="  M 231.64458,418.62684   C 231.64458,420.40534 230.20579,421.84412 228.40731,421.84412   C 226.62881,421.84412 225.19002,420.40534 225.19002,418.62684   C 225.19002,416.84834 226.62881,415.40955 228.40731,415.40955   C 230.20579,415.40955 231.64458,416.84834 231.64458,418.62684  "
     style="fill:none;stroke:#000000;stroke-width:0.99915707px;stroke-linecap:butt;stroke-linejoin:miter;stroke-miterlimit:10;stroke-dasharray:none;stroke-opacity:1;" />
  <path
     id="path52"
     d="  M 231.63459,40.985424   C 231.63459,42.773915 230.1958,44.212701 228.40731,44.212701   C 226.62881,44.212701 225.19002,42.773915 225.19002,40.985424   C 225.19002,39.206924 226.62881,37.768138 228.40731,37.768138   C 230.1958,37.768138 231.63459,39.206924 231.63459,40.985424   z "
     style="fill:#ff0000;fill-rule:evenodd;fill-opacity:1;stroke:none;" />
  <path
     id="path54"
     d="  M 231.63459,40.985424   C 231.63459,42.773915 230.1958,44.212701 228.40731,44.212701   C 226.62881,44.212701 225.19002,42.773915 225.19002,40.985424   C 225.19002,39.206924 226.62881,37.768138 228.40731,37.768138   C 230.1958,37.768138 231.63459,39.206924 231.63459,40.985424  "
     style="fill:none;stroke:#000000;stroke-width:1.0091487px;stroke-linecap:butt;stroke-linejoin:miter;stroke-miterlimit:10;stroke-dasharray:none;stroke-opacity:1;" />
  <path
     id="path56"
     d="  M 420.46529,229.80613   C 420.46529,231.58463 419.00652,233.0434 417.22802,233.0434   C 415.44952,233.0434 414.01073,231.58463 414.01073,229.80613   C 414.01073,228.02763 415.44952,226.58884 417.22802,226.58884   C 419.00652,226.58884 420.46529,228.02763 420.46529,229.80613   z "
     style="fill:#ff0000;fill-rule:evenodd;fill-opacity:1;stroke:none;" />
  <path
     id="path58"
     d="  M 420.46529,229.80613   C 420.46529,231.58463 419.00652,233.0434 417.22802,233.0434   C 415.44952,233.0434 414.01073,231.58463 414.01073,229.80613   C 414.01073,228.02763 415.44952,226.58884 417.22802,226.58884   C 419.00652,226.58884 420.46529,228.02763 420.46529,229.80613  "
     style="fill:none;stroke:#000000;stroke-width:0.99915707px;stroke-linecap:butt;stroke-linejoin:miter;stroke-miterlimit:10;stroke-dasharray:none;stroke-opacity:1;" />
  <path
     id="path60"
     d="  M 42.823873,229.80613   C 42.823873,231.58463 41.375095,233.03341 39.596595,233.03341   C 37.818096,233.03341 36.369318,231.58463 36.369318,229.80613   C 36.369318,228.02763 37.818096,226.57885 39.596595,226.57885   C 41.375095,226.57885 42.823873,228.02763 42.823873,229.80613   z "
     style="fill:#ff0000;fill-rule:evenodd;fill-opacity:1;stroke:none;" />
  <path
     id="path62"
     d="  M 42.823873,229.80613   C 42.823873,231.58463 41.375095,233.03341 39.596595,233.03341   C 37.818096,233.03341 36.369318,231.58463 36.369318,229.80613   C 36.369318,228.02763 37.818096,226.57885 39.596595,226.57885   C 41.375095,226.57885 42.823873,228.02763 42.823873,229.80613  "
     style="fill:none;stroke:#000000;stroke-width:1.0091487px;stroke-linecap:butt;stroke-linejoin:miter;stroke-miterlimit:10;stroke-dasharray:none;stroke-opacity:1;" />
</svg>
