<?xml version="1.0" encoding="UTF-8" standalone="no"?>
<svg
   xmlns:dc="http://purl.org/dc/elements/1.1/"
   xmlns:cc="http://creativecommons.org/ns#"
   xmlns:rdf="http://www.w3.org/1999/02/22-rdf-syntax-ns#"
   xmlns:svg="http://www.w3.org/2000/svg"
   xmlns="http://www.w3.org/2000/svg"
   id="svg130"
   height="80.349998mm"
   width="114.02mm"
   version="1.0">
  <metadata
     id="metadata134">
    <rdf:RDF>
      <cc:Work
         rdf:about="">
        <dc:format>image/svg+xml</dc:format>
        <dc:type
           rdf:resource="http://purl.org/dc/dcmitype/StillImage" />
      </cc:Work>
    </rdf:RDF>
  </metadata>
  <defs
     id="defs36">
    <clipPath
       id="clipEmfPath1"
       clipPathUnits="userSpaceOnUse">
      <path
         id="path2"
         d="M -2.397977,5.7551448 L 4793.5561,5.7551448 L 4793.5561,4801.7092 L -2.397977,4801.7092 z" />
    </clipPath>
    <clipPath
       id="clipEmfPath2"
       clipPathUnits="userSpaceOnUse">
      <path
         id="path5"
         d="M 241.87595,63.786189 L 4793.5561,63.786189 L 4793.5561,4801.7092 L 241.87595,4801.7092 z" />
    </clipPath>
    <clipPath
       id="clipEmfPath3"
       clipPathUnits="userSpaceOnUse">
      <path
         id="path8"
         d="M 241.87595,63.786189 L 272.25032,63.786189 L 272.25032,89.524475 L 241.87595,89.524475 z" />
    </clipPath>
    <clipPath
       id="clipEmfPath4"
       clipPathUnits="userSpaceOnUse">
      <path
         id="path11"
         d="M 5.5952797,80.731893 L 4793.5561,80.731893 L 4793.5561,4801.7092 L 5.5952797,4801.7092 z" />
    </clipPath>
    <clipPath
       id="clipEmfPath5"
       clipPathUnits="userSpaceOnUse">
      <path
         id="path14"
         d="M 5.5952797,80.731893 L 35.969655,80.731893 L 35.969655,106.47018 L 5.5952797,106.47018 z" />
    </clipPath>
    <clipPath
       id="clipEmfPath6"
       clipPathUnits="userSpaceOnUse">
      <path
         id="path17"
         d="M 27.496803,203.98791 L 4793.5561,203.98791 L 4793.5561,4801.7092 L 27.496803,4801.7092 z" />
    </clipPath>
    <clipPath
       id="clipEmfPath7"
       clipPathUnits="userSpaceOnUse">
      <path
         id="path20"
         d="M 27.496803,203.98791 L 57.871179,203.98791 L 57.871179,229.7262 L 27.496803,229.7262 z" />
    </clipPath>
    <clipPath
       id="clipEmfPath8"
       clipPathUnits="userSpaceOnUse">
      <path
         id="path23"
         d="M 258.02233,278.96466 L 4793.5561,278.96466 L 4793.5561,4801.7092 L 258.02233,4801.7092 z" />
    </clipPath>
    <clipPath
       id="clipEmfPath9"
       clipPathUnits="userSpaceOnUse">
      <path
         id="path26"
         d="M 258.02233,278.96466 L 288.3967,278.96466 L 288.3967,304.70295 L 258.02233,304.70295 z" />
    </clipPath>
    <clipPath
       id="clipEmfPath10"
       clipPathUnits="userSpaceOnUse">
      <path
         id="path29"
         d="M 391.82944,215.33834 L 4793.5561,215.33834 L 4793.5561,4801.7092 L 391.82944,4801.7092 z" />
    </clipPath>
    <clipPath
       id="clipEmfPath11"
       clipPathUnits="userSpaceOnUse">
      <path
         id="path32"
         d="M 391.82944,215.33834 L 423.16301,215.33834 L 423.16301,241.07662 L 391.82944,241.07662 z" />
    </clipPath>
    <pattern
       y="0"
       x="0"
       height="6"
       width="6"
       patternUnits="userSpaceOnUse"
       id="EMFhbasepattern" />
  </defs>
  <path
     id="path38"
     d="  M 60.48897,274.98801   L 362.59411,274.98801  "
     style="fill:none;stroke:#000080;stroke-width:2.4179602px;stroke-linecap:butt;stroke-linejoin:miter;stroke-miterlimit:10;stroke-dasharray:none;stroke-opacity:1;" />
  <path
     id="path40"
     d="  M 362.59411,274.98801   L 419.98569,147.63545  "
     style="fill:none;stroke:#000080;stroke-width:2.4179602px;stroke-linecap:butt;stroke-linejoin:miter;stroke-miterlimit:10;stroke-dasharray:none;stroke-opacity:1;" />
  <path
     id="path42"
     d="  M 60.478979,274.97802   L 13.728418,13.818343  "
     style="fill:none;stroke:#000080;stroke-width:2.4179602px;stroke-linecap:butt;stroke-linejoin:miter;stroke-miterlimit:10;stroke-dasharray:none;stroke-opacity:1;" />
  <path
     id="path44"
     d="  M 13.728418,13.828334   L 419.98569,147.63545  "
     style="fill:none;stroke:#000080;stroke-width:2.4179602px;stroke-linecap:butt;stroke-linejoin:miter;stroke-miterlimit:10;stroke-dasharray:none;stroke-opacity:1;" />
  <path
     id="path46"
     d="  M 27.356921,89.974096   L 244.94336,89.974096  "
     style="fill:none;stroke:#000080;stroke-width:2.4179602px;stroke-linecap:butt;stroke-linejoin:miter;stroke-miterlimit:10;stroke-dasharray:none;stroke-opacity:1;" />
  <path
     id="path48"
     d="  M 244.94336,89.974096   L 49.428301,213.24011  "
     style="fill:none;stroke:#000080;stroke-width:2.4179602px;stroke-linecap:butt;stroke-linejoin:miter;stroke-miterlimit:10;stroke-dasharray:none;stroke-opacity:1;" />
  <path
     id="path50"
     d="  M 49.428301,213.24011   L 265.21626,274.97802  "
     style="fill:none;stroke:#000080;stroke-width:2.4179602px;stroke-linecap:butt;stroke-linejoin:miter;stroke-miterlimit:10;stroke-dasharray:none;stroke-opacity:1;" />
  <path
     id="path52"
     d="  M 265.21626,274.98801   L 387.11342,220.53395  "
     style="fill:none;stroke:#000080;stroke-width:2.4179602px;stroke-linecap:butt;stroke-linejoin:miter;stroke-miterlimit:10;stroke-dasharray:none;stroke-opacity:1;" />
  <path
     id="path54"
     d="  M 248.16065,89.974096   C 248.16065,91.752596 246.72186,93.201373 244.94336,93.201373   C 243.16486,93.201373 241.71608,91.752596 241.71608,89.974096   C 241.71608,88.195596 243.16486,86.746819 244.94336,86.746819   C 246.72186,86.746819 248.16065,88.195596 248.16065,89.974096   z "
     style="fill:#ff0000;fill-rule:evenodd;fill-opacity:1;stroke:none;" />
  <path
     id="path56"
     d="  M 248.16065,89.974096   C 248.16065,91.752596 246.72186,93.201373 244.94336,93.201373   C 243.16486,93.201373 241.71608,91.752596 241.71608,89.974096   C 241.71608,88.195596 243.16486,86.746819 244.94336,86.746819   C 246.72186,86.746819 248.16065,88.195596 248.16065,89.974096  "
     style="fill:none;stroke:#000000;stroke-width:1.0091487px;stroke-linecap:butt;stroke-linejoin:miter;stroke-miterlimit:10;stroke-dasharray:none;stroke-opacity:1;" />
  <g
     id="g64"
     clip-path="url(#clipEmfPath3)">
    <text
       id="text62"
       y="13.499438"
       x="0.000000"
       transform="matrix(1.000000,-0.000000,0.000000,1.000000,241.875948,63.786189)"
       style="font-size:19.312500px;font-style:italic;font-variant:normal;font-weight:700;font-stretch:Condensed;line-height:125.000000%;letter-spacing:0px;word-spacing:0px;fill:#000000;fill-opacity:1;stroke:none;font-family:Times New Roman;text-align:start;text-anchor:start;"
       xml:space="preserve"><tspan
         id="tspan60"
         y="13.499438"
         x="0.000000"><tspan
           id="tspan58"
           style="fill:#000000;font-size:19.312500px;font-style:italic;font-variant:normal;font-weight:700;font-stretch:Condensed;font-family:Times New Roman;"
           dy="0.000000"
           dx="0.000000">E</tspan></tspan></text>
  </g>
  <path
     id="path66"
     d="  M -2.397977,5.7551448   M -2.397977,5.7551448   M 365.81139,274.98801   C 365.81139,276.76651 364.37261,278.2053 362.59411,278.2053   C 360.81561,278.2053 359.35684,276.76651 359.35684,274.98801   C 359.35684,273.20951 360.81561,271.75075 362.59411,271.75075   C 364.37261,271.75075 365.81139,273.20951 365.81139,274.98801   z "
     style="fill:#ff0000;fill-rule:evenodd;fill-opacity:1;stroke:none;" />
  <path
     id="path68"
     d="  M 365.81139,274.98801   C 365.81139,276.76651 364.37261,278.2053 362.59411,278.2053   C 360.81561,278.2053 359.35684,276.76651 359.35684,274.98801   C 359.35684,273.20951 360.81561,271.75075 362.59411,271.75075   C 364.37261,271.75075 365.81139,273.20951 365.81139,274.98801  "
     style="fill:none;stroke:#000000;stroke-width:0.99915707px;stroke-linecap:butt;stroke-linejoin:miter;stroke-miterlimit:10;stroke-dasharray:none;stroke-opacity:1;" />
  <path
     id="path70"
     d="  M 63.706256,274.97802   C 63.706256,276.75652 62.257478,278.2053 60.478979,278.2053   C 58.700479,278.2053 57.251701,276.75652 57.251701,274.97802   C 57.251701,273.19952 58.700479,271.75075 60.478979,271.75075   C 62.257478,271.75075 63.706256,273.19952 63.706256,274.97802   z "
     style="fill:#ff0000;fill-rule:evenodd;fill-opacity:1;stroke:none;" />
  <path
     id="path72"
     d="  M 63.706256,274.97802   C 63.706256,276.75652 62.257478,278.2053 60.478979,278.2053   C 58.700479,278.2053 57.251701,276.75652 57.251701,274.97802   C 57.251701,273.19952 58.700479,271.75075 60.478979,271.75075   C 62.257478,271.75075 63.706256,273.19952 63.706256,274.97802  "
     style="fill:none;stroke:#000000;stroke-width:1.0091487px;stroke-linecap:butt;stroke-linejoin:miter;stroke-miterlimit:10;stroke-dasharray:none;stroke-opacity:1;" />
  <path
     id="path74"
     d="  M 423.20298,147.63545   C 423.20298,149.41395 421.76419,150.85274 419.98569,150.85274   C 418.18721,150.85274 416.74842,149.41395 416.74842,147.63545   C 416.74842,145.85695 418.18721,144.39818 419.98569,144.39818   C 421.76419,144.39818 423.20298,145.85695 423.20298,147.63545   z "
     style="fill:#ff0000;fill-rule:evenodd;fill-opacity:1;stroke:none;" />
  <path
     id="path76"
     d="  M 423.20298,147.63545   C 423.20298,149.41395 421.76419,150.85274 419.98569,150.85274   C 418.18721,150.85274 416.74842,149.41395 416.74842,147.63545   C 416.74842,145.85695 418.18721,144.39818 419.98569,144.39818   C 421.76419,144.39818 423.20298,145.85695 423.20298,147.63545  "
     style="fill:none;stroke:#000000;stroke-width:0.99915707px;stroke-linecap:butt;stroke-linejoin:miter;stroke-miterlimit:10;stroke-dasharray:none;stroke-opacity:1;" />
  <path
     id="path78"
     d="  M 16.955696,13.818343   C 16.955696,15.596842 15.506918,17.04562 13.728418,17.04562   C 11.949919,17.04562 10.501141,15.596842 10.501141,13.818343   C 10.501141,12.039843 11.949919,10.601057 13.728418,10.601057   C 15.506918,10.601057 16.955696,12.039843 16.955696,13.818343   z "
     style="fill:#ff0000;fill-rule:evenodd;fill-opacity:1;stroke:none;" />
  <path
     id="path80"
     d="  M 16.955696,13.818343   C 16.955696,15.596842 15.506918,17.04562 13.728418,17.04562   C 11.949919,17.04562 10.501141,15.596842 10.501141,13.818343   C 10.501141,12.039843 11.949919,10.601057 13.728418,10.601057   C 15.506918,10.601057 16.955696,12.039843 16.955696,13.818343  "
     style="fill:none;stroke:#000000;stroke-width:1.0091487px;stroke-linecap:butt;stroke-linejoin:miter;stroke-miterlimit:10;stroke-dasharray:none;stroke-opacity:1;" />
  <path
     id="path82"
     d="  M 30.584199,89.974096   C 30.584199,91.752596 29.145412,93.201373 27.356921,93.201373   C 25.578421,93.201373 24.139635,91.752596 24.139635,89.974096   C 24.139635,88.195596 25.578421,86.746819 27.356921,86.746819   C 29.145412,86.746819 30.584199,88.195596 30.584199,89.974096   z "
     style="fill:#ff0000;fill-rule:evenodd;fill-opacity:1;stroke:none;" />
  <path
     id="path84"
     d="  M 30.584199,89.974096   C 30.584199,91.752596 29.145412,93.201373 27.356921,93.201373   C 25.578421,93.201373 24.139635,91.752596 24.139635,89.974096   C 24.139635,88.195596 25.578421,86.746819 27.356921,86.746819   C 29.145412,86.746819 30.584199,88.195596 30.584199,89.974096  "
     style="fill:none;stroke:#000000;stroke-width:1.0091487px;stroke-linecap:butt;stroke-linejoin:miter;stroke-miterlimit:10;stroke-dasharray:none;stroke-opacity:1;" />
  <g
     id="g92"
     clip-path="url(#clipEmfPath5)">
    <text
       id="text90"
       y="13.499438"
       x="0.000000"
       transform="matrix(1.000000,-0.000000,0.000000,1.000000,5.595280,80.731893)"
       style="font-size:19.312500px;font-style:italic;font-variant:normal;font-weight:700;font-stretch:Condensed;line-height:125.000000%;letter-spacing:0px;word-spacing:0px;fill:#000000;fill-opacity:1;stroke:none;font-family:Times New Roman;text-align:start;text-anchor:start;"
       xml:space="preserve"><tspan
         id="tspan88"
         y="13.499438"
         x="0.000000"><tspan
           id="tspan86"
           style="fill:#000000;font-size:19.312500px;font-style:italic;font-variant:normal;font-weight:700;font-stretch:Condensed;font-family:Times New Roman;"
           dy="0.000000"
           dx="0.000000">A</tspan></tspan></text>
  </g>
  <path
     id="path94"
     d="  M -2.397977,5.7551448   M -2.397977,5.7551448   M 52.655579,213.24011   C 52.655579,215.0286 51.206801,216.46738 49.428301,216.46738   C 47.649802,216.46738 46.201024,215.0286 46.201024,213.24011   C 46.201024,211.46161 47.649802,210.02282 49.428301,210.02282   C 51.206801,210.02282 52.655579,211.46161 52.655579,213.24011   z "
     style="fill:#ff0000;fill-rule:evenodd;fill-opacity:1;stroke:none;" />
  <path
     id="path96"
     d="  M 52.655579,213.24011   C 52.655579,215.0286 51.206801,216.46738 49.428301,216.46738   C 47.649802,216.46738 46.201024,215.0286 46.201024,213.24011   C 46.201024,211.46161 47.649802,210.02282 49.428301,210.02282   C 51.206801,210.02282 52.655579,211.46161 52.655579,213.24011  "
     style="fill:none;stroke:#000000;stroke-width:1.0091487px;stroke-linecap:butt;stroke-linejoin:miter;stroke-miterlimit:10;stroke-dasharray:none;stroke-opacity:1;" />
  <g
     id="g104"
     clip-path="url(#clipEmfPath7)">
    <text
       id="text102"
       y="13.499438"
       x="0.000000"
       transform="matrix(1.000000,-0.000000,0.000000,1.000000,27.496803,203.987911)"
       style="font-size:19.312500px;font-style:italic;font-variant:normal;font-weight:700;font-stretch:Condensed;line-height:125.000000%;letter-spacing:0px;word-spacing:0px;fill:#000000;fill-opacity:1;stroke:none;font-family:Times New Roman;text-align:start;text-anchor:start;"
       xml:space="preserve"><tspan
         id="tspan100"
         y="13.499438"
         x="0.000000"><tspan
           id="tspan98"
           style="fill:#000000;font-size:19.312500px;font-style:italic;font-variant:normal;font-weight:700;font-stretch:Condensed;font-family:Times New Roman;"
           dy="0.000000"
           dx="0.000000">B</tspan></tspan></text>
  </g>
  <path
     id="path106"
     d="  M -2.397977,5.7551448   M -2.397977,5.7551448   M 268.43354,274.97802   C 268.43354,276.75652 266.99476,278.2053 265.21626,278.2053   C 263.42777,278.2053 261.98898,276.75652 261.98898,274.97802   C 261.98898,273.19952 263.42777,271.75075 265.21626,271.75075   C 266.99476,271.75075 268.43354,273.19952 268.43354,274.97802   z "
     style="fill:#ff0000;fill-rule:evenodd;fill-opacity:1;stroke:none;" />
  <path
     id="path108"
     d="  M 268.43354,274.97802   C 268.43354,276.75652 266.99476,278.2053 265.21626,278.2053   C 263.42777,278.2053 261.98898,276.75652 261.98898,274.97802   C 261.98898,273.19952 263.42777,271.75075 265.21626,271.75075   C 266.99476,271.75075 268.43354,273.19952 268.43354,274.97802  "
     style="fill:none;stroke:#000000;stroke-width:1.0091487px;stroke-linecap:butt;stroke-linejoin:miter;stroke-miterlimit:10;stroke-dasharray:none;stroke-opacity:1;" />
  <g
     id="g116"
     clip-path="url(#clipEmfPath9)">
    <text
       id="text114"
       y="13.499438"
       x="0.000000"
       transform="matrix(1.000000,-0.000000,0.000000,1.000000,258.022327,278.964659)"
       style="font-size:19.312500px;font-style:italic;font-variant:normal;font-weight:700;font-stretch:Condensed;line-height:125.000000%;letter-spacing:0px;word-spacing:0px;fill:#000000;fill-opacity:1;stroke:none;font-family:Times New Roman;text-align:start;text-anchor:start;"
       xml:space="preserve"><tspan
         id="tspan112"
         y="13.499438"
         x="0.000000"><tspan
           id="tspan110"
           style="fill:#000000;font-size:19.312500px;font-style:italic;font-variant:normal;font-weight:700;font-stretch:Condensed;font-family:Times New Roman;"
           dy="0.000000"
           dx="0.000000">C</tspan></tspan></text>
  </g>
  <path
     id="path118"
     d="  M -2.397977,5.7551448   M -2.397977,5.7551448   M 390.35069,220.53395   C 390.35069,222.33244 388.91191,223.77122 387.11342,223.77122   C 385.33492,223.77122 383.89614,222.33244 383.89614,220.53395   C 383.89614,218.75545 385.33492,217.31667 387.11342,217.31667   C 388.91191,217.31667 390.35069,218.75545 390.35069,220.53395   z "
     style="fill:#ff0000;fill-rule:evenodd;fill-opacity:1;stroke:none;" />
  <path
     id="path120"
     d="  M 390.35069,220.53395   C 390.35069,222.33244 388.91191,223.77122 387.11342,223.77122   C 385.33492,223.77122 383.89614,222.33244 383.89614,220.53395   C 383.89614,218.75545 385.33492,217.31667 387.11342,217.31667   C 388.91191,217.31667 390.35069,218.75545 390.35069,220.53395  "
     style="fill:none;stroke:#000000;stroke-width:0.99915707px;stroke-linecap:butt;stroke-linejoin:miter;stroke-miterlimit:10;stroke-dasharray:none;stroke-opacity:1;" />
  <g
     id="g128"
     clip-path="url(#clipEmfPath11)">
    <text
       id="text126"
       y="13.499438"
       x="0.000000"
       transform="matrix(1.000000,-0.000000,0.000000,1.000000,391.829444,215.338336)"
       style="font-size:19.312500px;font-style:italic;font-variant:normal;font-weight:700;font-stretch:Condensed;line-height:125.000000%;letter-spacing:0px;word-spacing:0px;fill:#000000;fill-opacity:1;stroke:none;font-family:Times New Roman;text-align:start;text-anchor:start;"
       xml:space="preserve"><tspan
         id="tspan124"
         y="13.499438"
         x="0.000000"><tspan
           id="tspan122"
           style="fill:#000000;font-size:19.312500px;font-style:italic;font-variant:normal;font-weight:700;font-stretch:Condensed;font-family:Times New Roman;"
           dy="0.000000"
           dx="0.000000">D</tspan></tspan></text>
  </g>
</svg>
