<?xml version="1.0" encoding="UTF-8" standalone="no"?>
<svg
   version="1.0"
   width="124.27mm"
   height="104.64mm"
   id="svg22"
   sodipodi:docname="P3.emf"
   xmlns:inkscape="http://www.inkscape.org/namespaces/inkscape"
   xmlns:sodipodi="http://sodipodi.sourceforge.net/DTD/sodipodi-0.dtd"
   xmlns="http://www.w3.org/2000/svg"
   xmlns:svg="http://www.w3.org/2000/svg">
  <sodipodi:namedview
     id="namedview22"
     pagecolor="#ffffff"
     bordercolor="#000000"
     borderopacity="0.25"
     inkscape:showpageshadow="2"
     inkscape:pageopacity="0.0"
     inkscape:pagecheckerboard="0"
     inkscape:deskcolor="#d1d1d1"
     inkscape:document-units="mm" />
  <defs
     id="defs9">
    <clipPath
       clipPathUnits="userSpaceOnUse"
       id="clipEmfPath1">
      <path
         d="M 5.7551448,-7.9932567 L 4801.7092,-7.9932567 L 4801.7092,4787.9608 L 5.7551448,4787.9608 z"
         id="path1" />
    </clipPath>
    <clipPath
       clipPathUnits="userSpaceOnUse"
       id="clipEmfPath2">
      <path
         d="M 54.993606,357.13871 L 4801.7092,357.13871 L 4801.7092,4787.9608 L 54.993606,4787.9608 z"
         id="path2" />
    </clipPath>
    <clipPath
       clipPathUnits="userSpaceOnUse"
       id="clipEmfPath3">
      <path
         d="M 54.993606,357.13871 L 85.367982,357.13871 L 85.367982,382.877 L 54.993606,382.877 z"
         id="path3" />
    </clipPath>
    <clipPath
       clipPathUnits="userSpaceOnUse"
       id="clipEmfPath4">
      <path
         d="M 51.636438,147.55552 L 4801.7092,147.55552 L 4801.7092,4787.9608 L 51.636438,4787.9608 z"
         id="path4" />
    </clipPath>
    <clipPath
       clipPathUnits="userSpaceOnUse"
       id="clipEmfPath5">
      <path
         d="M 51.636438,147.55552 L 82.010814,147.55552 L 82.010814,173.29381 L 51.636438,173.29381 z"
         id="path5" />
    </clipPath>
    <clipPath
       clipPathUnits="userSpaceOnUse"
       id="clipEmfPath6">
      <path
         d="M 424.1222,0 L 4801.7092,0 L 4801.7092,4787.9608 L 424.1222,4787.9608 z"
         id="path6" />
    </clipPath>
    <clipPath
       clipPathUnits="userSpaceOnUse"
       id="clipEmfPath7">
      <path
         d="M 424.1222,0 L 454.49658,0 L 454.49658,25.738287 L 424.1222,25.738287 z"
         id="path7" />
    </clipPath>
    <clipPath
       clipPathUnits="userSpaceOnUse"
       id="clipEmfPath8">
      <path
         d="M 316.05337,268.41356 L 4801.7092,268.41356 L 4801.7092,4787.9608 L 316.05337,4787.9608 z"
         id="path8" />
    </clipPath>
    <clipPath
       clipPathUnits="userSpaceOnUse"
       id="clipEmfPath9">
      <path
         d="M 316.05337,268.41356 L 345.30869,268.41356 L 345.30869,294.15185 L 316.05337,294.15185 z"
         id="path9" />
    </clipPath>
    <pattern
       id="EMFhbasepattern"
       patternUnits="userSpaceOnUse"
       width="6"
       height="6"
       x="0"
       y="0" />
  </defs>
  <path
     style="fill:none;stroke:#000080;stroke-width:2.4179602px;stroke-linecap:butt;stroke-linejoin:miter;stroke-miterlimit:10;stroke-dasharray:none;stroke-opacity:1;"
     d="  M 73.468021,174.17306   L 323.33723,264.4569  "
     id="path10" />
  <path
     style="fill:none;stroke:#000080;stroke-width:2.4179602px;stroke-linecap:butt;stroke-linejoin:miter;stroke-miterlimit:10;stroke-dasharray:none;stroke-opacity:1;"
     d="  M 323.34722,264.4569   L 417.64766,26.677494  "
     id="path11" />
  <path
     style="fill:none;stroke:#000080;stroke-width:2.4179602px;stroke-linecap:butt;stroke-linejoin:miter;stroke-miterlimit:10;stroke-dasharray:none;stroke-opacity:1;"
     d="  M 323.34722,264.4569   L 73.478012,354.74073  "
     id="path12" />
  <path
     style="fill:none;stroke:#00ffff;stroke-width:2.4179602px;stroke-linecap:butt;stroke-linejoin:miter;stroke-miterlimit:10;stroke-dasharray:none;stroke-opacity:1;"
     d="  M 13.828334,264.4569   L 466.82618,264.4569  "
     id="path13" />
  <path
     style="fill:#ff0000;fill-rule:evenodd;fill-opacity:1;stroke:none;"
     d="  M 76.695298,354.74073   C 76.695298,356.51923 75.256512,357.95802 73.478012,357.95802   C 71.699513,357.95802 70.240743,356.51923 70.240743,354.74073   C 70.240743,352.96223 71.699513,351.50346 73.478012,351.50346   C 75.256512,351.50346 76.695298,352.96223 76.695298,354.74073   z "
     id="path14" />
  <path
     style="fill:none;stroke:#000000;stroke-width:0.99915707px;stroke-linecap:butt;stroke-linejoin:miter;stroke-miterlimit:10;stroke-dasharray:none;stroke-opacity:1;"
     d="  M 76.695298,354.74073   C 76.695298,356.51923 75.256512,357.95802 73.478012,357.95802   C 71.699513,357.95802 70.240743,356.51923 70.240743,354.74073   C 70.240743,352.96223 71.699513,351.50346 73.478012,351.50346   C 75.256512,351.50346 76.695298,352.96223 76.695298,354.74073  "
     id="path15" />
  <g
     clip-path="url(#clipEmfPath3)"
     id="g16">
    <text
       xml:space="preserve"
       style="font-size:19.312500px;font-style:italic;font-variant:normal;font-weight:700;font-stretch:Condensed;line-height:125.000000%;letter-spacing:0px;word-spacing:0px;fill:#000000;fill-opacity:1;stroke:none;font-family:Times New Roman;text-align:start;text-anchor:start;"
       transform="matrix(1.000000,-0.000000,0.000000,1.000000,54.993606,357.138710)"
       x="0.000000"
       y="17.209625"
       id="text16"><tspan
         sodipodi:role="line"
         x="0.000000"
         y="17.209625"
         id="tspan16"><tspan
           dx="0.000000"
           dy="0.000000"
           style="fill:#000000;font-size:19.312500px;font-style:italic;font-variant:normal;font-weight:700;font-stretch:Condensed;font-family:Times New Roman;"
           id="tspan15">C</tspan></tspan></text>
  </g>
  <path
     style="fill:#ff0000;fill-rule:evenodd;fill-opacity:1;stroke:none;"
     d="  M 5.7551448,-7.9932567   M 5.7551448,-7.9932567   M 76.695298,174.17306   C 76.695298,175.96156 75.24652,177.40034 73.468021,177.40034   C 71.689521,177.40034 70.240743,175.96156 70.240743,174.17306   C 70.240743,172.39456 71.689521,170.95578 73.468021,170.95578   C 75.24652,170.95578 76.695298,172.39456 76.695298,174.17306   z "
     id="path16" />
  <path
     style="fill:none;stroke:#000000;stroke-width:1.0091487px;stroke-linecap:butt;stroke-linejoin:miter;stroke-miterlimit:10;stroke-dasharray:none;stroke-opacity:1;"
     d="  M 76.695298,174.17306   C 76.695298,175.96156 75.24652,177.40034 73.468021,177.40034   C 71.689521,177.40034 70.240743,175.96156 70.240743,174.17306   C 70.240743,172.39456 71.689521,170.95578 73.468021,170.95578   C 75.24652,170.95578 76.695298,172.39456 76.695298,174.17306  "
     id="path17" />
  <g
     clip-path="url(#clipEmfPath5)"
     id="g18">
    <text
       xml:space="preserve"
       style="font-size:19.312500px;font-style:italic;font-variant:normal;font-weight:700;font-stretch:Condensed;line-height:125.000000%;letter-spacing:0px;word-spacing:0px;fill:#000000;fill-opacity:1;stroke:none;font-family:Times New Roman;text-align:start;text-anchor:start;"
       transform="matrix(1.000000,-0.000000,0.000000,1.000000,51.636438,147.555519)"
       x="0.000000"
       y="17.209625"
       id="text18"><tspan
         sodipodi:role="line"
         x="0.000000"
         y="17.209625"
         id="tspan18"><tspan
           dx="0.000000"
           dy="0.000000"
           style="fill:#000000;font-size:19.312500px;font-style:italic;font-variant:normal;font-weight:700;font-stretch:Condensed;font-family:Times New Roman;"
           id="tspan17">A</tspan></tspan></text>
  </g>
  <path
     style="fill:#ff0000;fill-rule:evenodd;fill-opacity:1;stroke:none;"
     d="  M 5.7551448,-7.9932567   M 5.7551448,-7.9932567   M 420.88493,26.677494   C 420.88493,28.455994 419.42616,29.89478 417.64766,29.89478   C 415.86916,29.89478 414.43038,28.455994 414.43038,26.677494   C 414.43038,24.898995 415.86916,23.460208 417.64766,23.460208   C 419.42616,23.460208 420.88493,24.898995 420.88493,26.677494   z "
     id="path18" />
  <path
     style="fill:none;stroke:#000000;stroke-width:0.99915707px;stroke-linecap:butt;stroke-linejoin:miter;stroke-miterlimit:10;stroke-dasharray:none;stroke-opacity:1;"
     d="  M 420.88493,26.677494   C 420.88493,28.455994 419.42616,29.89478 417.64766,29.89478   C 415.86916,29.89478 414.43038,28.455994 414.43038,26.677494   C 414.43038,24.898995 415.86916,23.460208 417.64766,23.460208   C 419.42616,23.460208 420.88493,24.898995 420.88493,26.677494  "
     id="path19" />
  <g
     clip-path="url(#clipEmfPath7)"
     id="g20">
    <text
       xml:space="preserve"
       style="font-size:19.312500px;font-style:italic;font-variant:normal;font-weight:700;font-stretch:Condensed;line-height:125.000000%;letter-spacing:0px;word-spacing:0px;fill:#000000;fill-opacity:1;stroke:none;font-family:Times New Roman;text-align:start;text-anchor:start;"
       transform="matrix(1.000000,-0.000000,0.000000,1.000000,424.122201,0.000000)"
       x="0.000000"
       y="17.209625"
       id="text20"><tspan
         sodipodi:role="line"
         x="0.000000"
         y="17.209625"
         id="tspan20"><tspan
           dx="0.000000"
           dy="0.000000"
           style="fill:#000000;font-size:19.312500px;font-style:italic;font-variant:normal;font-weight:700;font-stretch:Condensed;font-family:Times New Roman;"
           id="tspan19">B</tspan></tspan></text>
  </g>
  <path
     style="fill:#ff0000;fill-rule:evenodd;fill-opacity:1;stroke:none;"
     d="  M 5.7551448,-7.9932567   M 5.7551448,-7.9932567   M 326.5645,264.4569   C 326.5645,266.2354 325.12572,267.67418 323.33723,267.67418   C 321.55873,267.67418 320.11994,266.2354 320.11994,264.4569   C 320.11994,262.66841 321.55873,261.22962 323.33723,261.22962   C 325.12572,261.22962 326.5645,262.66841 326.5645,264.4569   z "
     id="path20" />
  <path
     style="fill:none;stroke:#000000;stroke-width:1.0091487px;stroke-linecap:butt;stroke-linejoin:miter;stroke-miterlimit:10;stroke-dasharray:none;stroke-opacity:1;"
     d="  M 326.5645,264.4569   C 326.5645,266.2354 325.12572,267.67418 323.33723,267.67418   C 321.55873,267.67418 320.11994,266.2354 320.11994,264.4569   C 320.11994,262.66841 321.55873,261.22962 323.33723,261.22962   C 325.12572,261.22962 326.5645,262.66841 326.5645,264.4569  "
     id="path21" />
  <g
     clip-path="url(#clipEmfPath9)"
     id="g22">
    <text
       xml:space="preserve"
       style="font-size:19.312500px;font-style:italic;font-variant:normal;font-weight:700;font-stretch:Condensed;line-height:125.000000%;letter-spacing:0px;word-spacing:0px;fill:#000000;fill-opacity:1;stroke:none;font-family:Times New Roman;text-align:start;text-anchor:start;"
       transform="matrix(1.000000,-0.000000,0.000000,1.000000,316.053371,268.413561)"
       x="0.000000"
       y="17.209625"
       id="text22"><tspan
         sodipodi:role="line"
         x="0.000000"
         y="17.209625"
         id="tspan22"><tspan
           dx="0.000000"
           dy="0.000000"
           style="fill:#000000;font-size:19.312500px;font-style:italic;font-variant:normal;font-weight:700;font-stretch:Condensed;font-family:Times New Roman;"
           id="tspan21">P</tspan></tspan></text>
  </g>
</svg>
