<?xml version="1.0" encoding="UTF-8" standalone="no"?>
<svg
   xmlns:dc="http://purl.org/dc/elements/1.1/"
   xmlns:cc="http://creativecommons.org/ns#"
   xmlns:rdf="http://www.w3.org/1999/02/22-rdf-syntax-ns#"
   xmlns:svg="http://www.w3.org/2000/svg"
   xmlns="http://www.w3.org/2000/svg"
   id="svg62"
   height="101.66mm"
   width="130.03mm"
   version="1.0">
  <metadata
     id="metadata66">
    <rdf:RDF>
      <cc:Work
         rdf:about="">
        <dc:format>image/svg+xml</dc:format>
        <dc:type
           rdf:resource="http://purl.org/dc/dcmitype/StillImage" />
      </cc:Work>
    </rdf:RDF>
  </metadata>
  <defs
     id="defs24">
    <clipPath
       id="clipEmfPath1"
       clipPathUnits="userSpaceOnUse">
      <path
         id="path2"
         d="M 5.7551448,5.7551448 L 4801.7092,5.7551448 L 4801.7092,4801.7092 L 5.7551448,4801.7092 z" />
    </clipPath>
    <clipPath
       id="clipEmfPath2"
       clipPathUnits="userSpaceOnUse">
      <path
         id="path5"
         d="M 140.36159,191.1987 L 4801.7092,191.1987 L 4801.7092,4801.7092 L 140.36159,4801.7092 z" />
    </clipPath>
    <clipPath
       id="clipEmfPath3"
       clipPathUnits="userSpaceOnUse">
      <path
         id="path8"
         d="M 140.36159,191.1987 L 206.86548,191.1987 L 206.86548,230.36566 L 140.36159,230.36566 z" />
    </clipPath>
    <clipPath
       id="clipEmfPath4"
       clipPathUnits="userSpaceOnUse">
      <path
         id="path11"
         d="M 196.79398,359.53669 L 4801.7092,359.53669 L 4801.7092,4801.7092 L 196.79398,4801.7092 z" />
    </clipPath>
    <clipPath
       id="clipEmfPath5"
       clipPathUnits="userSpaceOnUse">
      <path
         id="path14"
         d="M 196.79398,359.53669 L 227.16836,359.53669 L 227.16836,385.27497 L 196.79398,385.27497 z" />
    </clipPath>
    <clipPath
       id="clipEmfPath6"
       clipPathUnits="userSpaceOnUse">
      <path
         id="path17"
         d="M 473.2008,199.19196 L 4801.7092,199.19196 L 4801.7092,4801.7092 L 473.2008,4801.7092 z" />
    </clipPath>
    <clipPath
       id="clipEmfPath7"
       clipPathUnits="userSpaceOnUse">
      <path
         id="path20"
         d="M 473.2008,199.19196 L 503.57517,199.19196 L 503.57517,224.93024 L 473.2008,224.93024 z" />
    </clipPath>
    <pattern
       y="0"
       x="0"
       height="6"
       width="6"
       patternUnits="userSpaceOnUse"
       id="EMFhbasepattern" />
  </defs>
  <path
     id="path26"
     d="  M 362.83391,56.552291   L 59.769577,365.25187  "
     style="fill:none;stroke:#000080;stroke-width:2.4179602px;stroke-linecap:butt;stroke-linejoin:miter;stroke-miterlimit:10;stroke-dasharray:none;stroke-opacity:1;" />
  <path
     id="path28"
     d="  M 316.89266,13.818343   L 13.818343,322.5379  "
     style="fill:none;stroke:#000080;stroke-width:2.4179602px;stroke-linecap:butt;stroke-linejoin:miter;stroke-miterlimit:10;stroke-dasharray:none;stroke-opacity:1;" />
  <g
     id="g36"
     clip-path="url(#clipEmfPath3)">
    <text
       id="text34"
       y="19.892375"
       x="0.000000"
       transform="matrix(1.000000,-0.000000,0.000000,1.000000,140.361588,191.198701)"
       style="font-size:29.125000px;font-style:normal;font-variant:normal;font-weight:400;font-stretch:Condensed;line-height:125.000000%;letter-spacing:0px;word-spacing:0px;fill:#000000;fill-opacity:1;stroke:none;font-family:Times New Roman;text-align:start;text-anchor:start;"
       xml:space="preserve"><tspan
         id="tspan32"
         y="24.892375"
         x="0.000000"><tspan
           id="tspan30"
           style="fill:#000000;font-size:29.125000px;font-style:normal;font-variant:normal;font-weight:400;font-stretch:Condensed;font-family:Times New Roman;"
           dy="0.000000"
           dx="0.000000">公路</tspan></tspan></text>
  </g>
  <path
     id="path38"
     d="  M 5.7551448,5.7551448   M 5.7551448,5.7551448   M 193.57669,355.58003   C 193.57669,357.35852 192.13791,358.81729 190.33943,358.81729   C 188.56093,358.81729 187.12214,357.35852 187.12214,355.58003   C 187.12214,353.80153 188.56093,352.36274 190.33943,352.36274   C 192.13791,352.36274 193.57669,353.80153 193.57669,355.58003   z "
     style="fill:#ff0000;fill-rule:evenodd;fill-opacity:1;stroke:none;" />
  <path
     id="path40"
     d="  M 193.57669,355.58003   C 193.57669,357.35852 192.13791,358.81729 190.33943,358.81729   C 188.56093,358.81729 187.12214,357.35852 187.12214,355.58003   C 187.12214,353.80153 188.56093,352.36274 190.33943,352.36274   C 192.13791,352.36274 193.57669,353.80153 193.57669,355.58003  "
     style="fill:none;stroke:#000000;stroke-width:0.99915707px;stroke-linecap:butt;stroke-linejoin:miter;stroke-miterlimit:10;stroke-dasharray:none;stroke-opacity:1;" />
  <g
     id="g48"
     clip-path="url(#clipEmfPath5)">
    <text
       id="text46"
       y="13.499438"
       x="0.000000"
       transform="matrix(1.000000,-0.000000,0.000000,1.000000,196.793980,359.536687)"
       style="font-size:19.312500px;font-style:italic;font-variant:normal;font-weight:700;font-stretch:Condensed;line-height:125.000000%;letter-spacing:0px;word-spacing:0px;fill:#000000;fill-opacity:1;stroke:none;font-family:Times New Roman;text-align:start;text-anchor:start;"
       xml:space="preserve"><tspan
         id="tspan44"
         y="13.499438"
         x="0.000000"><tspan
           id="tspan42"
           style="fill:#000000;font-size:19.312500px;font-style:italic;font-variant:normal;font-weight:700;font-stretch:Condensed;font-family:Times New Roman;"
           dy="0.000000"
           dx="0.000000">A</tspan></tspan></text>
  </g>
  <path
     id="path50"
     d="  M 5.7551448,5.7551448   M 5.7551448,5.7551448   M 470.04346,195.17535   C 470.04346,196.97383 468.60468,198.41261 466.82618,198.41261   C 465.04768,198.41261 463.58891,196.97383 463.58891,195.17535   C 463.58891,193.39685 465.04768,191.95806 466.82618,191.95806   C 468.60468,191.95806 470.04346,193.39685 470.04346,195.17535   z "
     style="fill:#ff0000;fill-rule:evenodd;fill-opacity:1;stroke:none;" />
  <path
     id="path52"
     d="  M 470.04346,195.17535   C 470.04346,196.97383 468.60468,198.41261 466.82618,198.41261   C 465.04768,198.41261 463.58891,196.97383 463.58891,195.17535   C 463.58891,193.39685 465.04768,191.95806 466.82618,191.95806   C 468.60468,191.95806 470.04346,193.39685 470.04346,195.17535  "
     style="fill:none;stroke:#000000;stroke-width:0.99915707px;stroke-linecap:butt;stroke-linejoin:miter;stroke-miterlimit:10;stroke-dasharray:none;stroke-opacity:1;" />
  <g
     id="g60"
     clip-path="url(#clipEmfPath7)">
    <text
       id="text58"
       y="13.499438"
       x="0.000000"
       transform="matrix(1.000000,-0.000000,0.000000,1.000000,473.200798,199.191957)"
       style="font-size:19.312500px;font-style:italic;font-variant:normal;font-weight:700;font-stretch:Condensed;line-height:125.000000%;letter-spacing:0px;word-spacing:0px;fill:#000000;fill-opacity:1;stroke:none;font-family:Times New Roman;text-align:start;text-anchor:start;"
       xml:space="preserve"><tspan
         id="tspan56"
         y="13.499438"
         x="0.000000"><tspan
           id="tspan54"
           style="fill:#000000;font-size:19.312500px;font-style:italic;font-variant:normal;font-weight:700;font-stretch:Condensed;font-family:Times New Roman;"
           dy="0.000000"
           dx="0.000000">B</tspan></tspan></text>
  </g>
</svg>
