<?xml version="1.0" encoding="UTF-8" standalone="no"?>
<svg
   xmlns:dc="http://purl.org/dc/elements/1.1/"
   xmlns:cc="http://creativecommons.org/ns#"
   xmlns:rdf="http://www.w3.org/1999/02/22-rdf-syntax-ns#"
   xmlns:svg="http://www.w3.org/2000/svg"
   xmlns="http://www.w3.org/2000/svg"
   id="svg130"
   height="105.71mm"
   width="106.97mm"
   version="1.0">
  <metadata
     id="metadata134">
    <rdf:RDF>
      <cc:Work
         rdf:about="">
        <dc:format>image/svg+xml</dc:format>
        <dc:type
           rdf:resource="http://purl.org/dc/dcmitype/StillImage" />
      </cc:Work>
    </rdf:RDF>
  </metadata>
  <defs
     id="defs42">
    <clipPath
       id="clipEmfPath1"
       clipPathUnits="userSpaceOnUse">
      <path
         id="path2"
         d="M -7.9932567,-7.9932567 L 4787.9608,-7.9932567 L 4787.9608,4787.9608 L -7.9932567,4787.9608 z" />
    </clipPath>
    <clipPath
       id="clipEmfPath2"
       clipPathUnits="userSpaceOnUse">
      <path
         id="path5"
         d="M 368.48913,92.721778 L 4787.9608,92.721778 L 4787.9608,4787.9608 L 368.48913,4787.9608 z" />
    </clipPath>
    <clipPath
       id="clipEmfPath3"
       clipPathUnits="userSpaceOnUse">
      <path
         id="path8"
         d="M 368.48913,92.721778 L 403.17987,92.721778 L 403.17987,118.46006 L 368.48913,118.46006 z" />
    </clipPath>
    <clipPath
       id="clipEmfPath4"
       clipPathUnits="userSpaceOnUse">
      <path
         id="path11"
         d="M 0,361.13534 L 4787.9608,361.13534 L 4787.9608,4787.9608 L 0,4787.9608 z" />
    </clipPath>
    <clipPath
       id="clipEmfPath5"
       clipPathUnits="userSpaceOnUse">
      <path
         id="path14"
         d="M 0,361.13534 L 30.374376,361.13534 L 30.374376,386.87363 L 0,386.87363 z" />
    </clipPath>
    <clipPath
       id="clipEmfPath6"
       clipPathUnits="userSpaceOnUse">
      <path
         id="path17"
         d="M 362.73399,361.13534 L 4787.9608,361.13534 L 4787.9608,4787.9608 L 362.73399,4787.9608 z" />
    </clipPath>
    <clipPath
       id="clipEmfPath7"
       clipPathUnits="userSpaceOnUse">
      <path
         id="path20"
         d="M 362.73399,361.13534 L 393.10837,361.13534 L 393.10837,386.87363 L 362.73399,386.87363 z" />
    </clipPath>
    <clipPath
       id="clipEmfPath8"
       clipPathUnits="userSpaceOnUse">
      <path
         id="path23"
         d="M 363.53332,0 L 4787.9608,0 L 4787.9608,4787.9608 L 363.53332,4787.9608 z" />
    </clipPath>
    <clipPath
       id="clipEmfPath9"
       clipPathUnits="userSpaceOnUse">
      <path
         id="path26"
         d="M 363.53332,0 L 394.86688,0 L 394.86688,25.738287 L 363.53332,25.738287 z" />
    </clipPath>
    <clipPath
       id="clipEmfPath10"
       clipPathUnits="userSpaceOnUse">
      <path
         id="path29"
         d="M 4.1564935,0 L 4787.9608,0 L 4787.9608,4787.9608 L 4.1564935,4787.9608 z" />
    </clipPath>
    <clipPath
       id="clipEmfPath11"
       clipPathUnits="userSpaceOnUse">
      <path
         id="path32"
         d="M 4.1564935,0 L 34.530869,0 L 34.530869,25.738287 L 4.1564935,25.738287 z" />
    </clipPath>
    <clipPath
       id="clipEmfPath12"
       clipPathUnits="userSpaceOnUse">
      <path
         id="path35"
         d="M 137.96361,158.10662 L 4787.9608,158.10662 L 4787.9608,4787.9608 L 137.96361,4787.9608 z" />
    </clipPath>
    <clipPath
       id="clipEmfPath13"
       clipPathUnits="userSpaceOnUse">
      <path
         id="path38"
         d="M 137.96361,158.10662 L 169.29718,158.10662 L 169.29718,183.8449 L 137.96361,183.8449 z" />
    </clipPath>
    <pattern
       y="0"
       x="0"
       height="6"
       width="6"
       patternUnits="userSpaceOnUse"
       id="EMFhbasepattern" />
  </defs>
  <path
     id="path44"
     d="  M 21.841574,21.841574   L 361.71485,21.841574  "
     style="fill:none;stroke:#000080;stroke-width:2.4179602px;stroke-linecap:butt;stroke-linejoin:miter;stroke-miterlimit:10;stroke-dasharray:none;stroke-opacity:1;" />
  <path
     id="path46"
     d="  M 361.71485,21.841574   L 361.71485,361.71485  "
     style="fill:none;stroke:#000080;stroke-width:2.4179602px;stroke-linecap:butt;stroke-linejoin:miter;stroke-miterlimit:10;stroke-dasharray:none;stroke-opacity:1;" />
  <path
     id="path48"
     d="  M 361.71485,361.71485   L 21.841574,361.71485  "
     style="fill:none;stroke:#000080;stroke-width:2.4179602px;stroke-linecap:butt;stroke-linejoin:miter;stroke-miterlimit:10;stroke-dasharray:none;stroke-opacity:1;" />
  <path
     id="path50"
     d="  M 21.841574,361.71485   L 21.841574,21.841574  "
     style="fill:none;stroke:#000080;stroke-width:2.4179602px;stroke-linecap:butt;stroke-linejoin:miter;stroke-miterlimit:10;stroke-dasharray:none;stroke-opacity:1;" />
  <path
     id="path52"
     d="  M 21.841574,21.841574   L 361.71485,361.71485  "
     style="fill:none;stroke:#000080;stroke-width:2.4179602px;stroke-linecap:butt;stroke-linejoin:miter;stroke-miterlimit:10;stroke-dasharray:none;stroke-opacity:1;" />
  <path
     id="path54"
     d="  M 361.71485,21.841574   L 158.86598,158.86598  "
     style="fill:none;stroke:#000080;stroke-width:2.4179602px;stroke-linecap:butt;stroke-linejoin:miter;stroke-miterlimit:10;stroke-dasharray:none;stroke-opacity:1;" />
  <path
     id="path56"
     d="  M 361.71485,106.80989   L 158.86598,158.86598  "
     style="fill:none;stroke:#000080;stroke-width:2.4179602px;stroke-linecap:butt;stroke-linejoin:miter;stroke-miterlimit:10;stroke-dasharray:none;stroke-opacity:1;" />
  <path
     id="path58"
     d="  M 364.93214,106.80989   C 364.93214,108.58839 363.49335,110.02718 361.71485,110.02718   C 359.93635,110.02718 358.47758,108.58839 358.47758,106.80989   C 358.47758,105.03139 359.93635,103.59261 361.71485,103.59261   C 363.49335,103.59261 364.93214,105.03139 364.93214,106.80989   z "
     style="fill:#ff0000;fill-rule:evenodd;fill-opacity:1;stroke:none;" />
  <path
     id="path60"
     d="  M 364.93214,106.80989   C 364.93214,108.58839 363.49335,110.02718 361.71485,110.02718   C 359.93635,110.02718 358.47758,108.58839 358.47758,106.80989   C 358.47758,105.03139 359.93635,103.59261 361.71485,103.59261   C 363.49335,103.59261 364.93214,105.03139 364.93214,106.80989  "
     style="fill:none;stroke:#000000;stroke-width:0.99915707px;stroke-linecap:butt;stroke-linejoin:miter;stroke-miterlimit:10;stroke-dasharray:none;stroke-opacity:1;" />
  <g
     id="g68"
     clip-path="url(#clipEmfPath3)">
    <text
       id="text66"
       y="13.499438"
       x="0.000000"
       transform="matrix(1.000000,-0.000000,0.000000,1.000000,368.489135,92.721778)"
       style="font-size:19.312500px;font-style:italic;font-variant:normal;font-weight:700;font-stretch:Condensed;line-height:125.000000%;letter-spacing:0px;word-spacing:0px;fill:#000000;fill-opacity:1;stroke:none;font-family:Times New Roman;text-align:start;text-anchor:start;"
       xml:space="preserve"><tspan
         id="tspan64"
         y="13.499438"
         x="0.000000"><tspan
           id="tspan62"
           style="fill:#000000;font-size:19.312500px;font-style:italic;font-variant:normal;font-weight:700;font-stretch:Condensed;font-family:Times New Roman;"
           dy="0.000000"
           dx="0.000000">M</tspan></tspan></text>
  </g>
  <path
     id="path70"
     d="  M -7.9932567,-7.9932567   M -7.9932567,-7.9932567   M 25.05886,361.71485   C 25.05886,363.49335 23.620074,364.93214 21.841574,364.93214   C 20.063074,364.93214 18.624288,363.49335 18.624288,361.71485   C 18.624288,359.93635 20.063074,358.47758 21.841574,358.47758   C 23.620074,358.47758 25.05886,359.93635 25.05886,361.71485   z "
     style="fill:#ff0000;fill-rule:evenodd;fill-opacity:1;stroke:none;" />
  <path
     id="path72"
     d="  M 25.05886,361.71485   C 25.05886,363.49335 23.620074,364.93214 21.841574,364.93214   C 20.063074,364.93214 18.624288,363.49335 18.624288,361.71485   C 18.624288,359.93635 20.063074,358.47758 21.841574,358.47758   C 23.620074,358.47758 25.05886,359.93635 25.05886,361.71485  "
     style="fill:none;stroke:#000000;stroke-width:0.99915707px;stroke-linecap:butt;stroke-linejoin:miter;stroke-miterlimit:10;stroke-dasharray:none;stroke-opacity:1;" />
  <g
     id="g80"
     clip-path="url(#clipEmfPath5)">
    <text
       id="text78"
       y="13.499438"
       x="0.000000"
       transform="matrix(1.000000,-0.000000,0.000000,1.000000,0.000000,361.135339)"
       style="font-size:19.312500px;font-style:italic;font-variant:normal;font-weight:700;font-stretch:Condensed;line-height:125.000000%;letter-spacing:0px;word-spacing:0px;fill:#000000;fill-opacity:1;stroke:none;font-family:Times New Roman;text-align:start;text-anchor:start;"
       xml:space="preserve"><tspan
         id="tspan76"
         y="13.499438"
         x="0.000000"><tspan
           id="tspan74"
           style="fill:#000000;font-size:19.312500px;font-style:italic;font-variant:normal;font-weight:700;font-stretch:Condensed;font-family:Times New Roman;"
           dy="0.000000"
           dx="0.000000">B</tspan></tspan></text>
  </g>
  <path
     id="path82"
     d="  M -7.9932567,-7.9932567   M -7.9932567,-7.9932567   M 364.93214,361.71485   C 364.93214,363.49335 363.49335,364.93214 361.71485,364.93214   C 359.93635,364.93214 358.47758,363.49335 358.47758,361.71485   C 358.47758,359.93635 359.93635,358.47758 361.71485,358.47758   C 363.49335,358.47758 364.93214,359.93635 364.93214,361.71485   z "
     style="fill:#ff0000;fill-rule:evenodd;fill-opacity:1;stroke:none;" />
  <path
     id="path84"
     d="  M 364.93214,361.71485   C 364.93214,363.49335 363.49335,364.93214 361.71485,364.93214   C 359.93635,364.93214 358.47758,363.49335 358.47758,361.71485   C 358.47758,359.93635 359.93635,358.47758 361.71485,358.47758   C 363.49335,358.47758 364.93214,359.93635 364.93214,361.71485  "
     style="fill:none;stroke:#000000;stroke-width:0.99915707px;stroke-linecap:butt;stroke-linejoin:miter;stroke-miterlimit:10;stroke-dasharray:none;stroke-opacity:1;" />
  <g
     id="g92"
     clip-path="url(#clipEmfPath7)">
    <text
       id="text90"
       y="13.499438"
       x="0.000000"
       transform="matrix(1.000000,-0.000000,0.000000,1.000000,362.733990,361.135339)"
       style="font-size:19.312500px;font-style:italic;font-variant:normal;font-weight:700;font-stretch:Condensed;line-height:125.000000%;letter-spacing:0px;word-spacing:0px;fill:#000000;fill-opacity:1;stroke:none;font-family:Times New Roman;text-align:start;text-anchor:start;"
       xml:space="preserve"><tspan
         id="tspan88"
         y="13.499438"
         x="0.000000"><tspan
           id="tspan86"
           style="fill:#000000;font-size:19.312500px;font-style:italic;font-variant:normal;font-weight:700;font-stretch:Condensed;font-family:Times New Roman;"
           dy="0.000000"
           dx="0.000000">C</tspan></tspan></text>
  </g>
  <path
     id="path94"
     d="  M -7.9932567,-7.9932567   M -7.9932567,-7.9932567   M 364.93214,21.841574   C 364.93214,23.620074 363.49335,25.05886 361.71485,25.05886   C 359.93635,25.05886 358.47758,23.620074 358.47758,21.841574   C 358.47758,20.063074 359.93635,18.624288 361.71485,18.624288   C 363.49335,18.624288 364.93214,20.063074 364.93214,21.841574   z "
     style="fill:#ff0000;fill-rule:evenodd;fill-opacity:1;stroke:none;" />
  <path
     id="path96"
     d="  M 364.93214,21.841574   C 364.93214,23.620074 363.49335,25.05886 361.71485,25.05886   C 359.93635,25.05886 358.47758,23.620074 358.47758,21.841574   C 358.47758,20.063074 359.93635,18.624288 361.71485,18.624288   C 363.49335,18.624288 364.93214,20.063074 364.93214,21.841574  "
     style="fill:none;stroke:#000000;stroke-width:0.99915707px;stroke-linecap:butt;stroke-linejoin:miter;stroke-miterlimit:10;stroke-dasharray:none;stroke-opacity:1;" />
  <g
     id="g104"
     clip-path="url(#clipEmfPath9)">
    <text
       id="text102"
       y="13.499438"
       x="0.000000"
       transform="matrix(1.000000,-0.000000,0.000000,1.000000,363.533316,0.000000)"
       style="font-size:19.312500px;font-style:italic;font-variant:normal;font-weight:700;font-stretch:Condensed;line-height:125.000000%;letter-spacing:0px;word-spacing:0px;fill:#000000;fill-opacity:1;stroke:none;font-family:Times New Roman;text-align:start;text-anchor:start;"
       xml:space="preserve"><tspan
         id="tspan100"
         y="13.499438"
         x="0.000000"><tspan
           id="tspan98"
           style="fill:#000000;font-size:19.312500px;font-style:italic;font-variant:normal;font-weight:700;font-stretch:Condensed;font-family:Times New Roman;"
           dy="0.000000"
           dx="0.000000">D</tspan></tspan></text>
  </g>
  <path
     id="path106"
     d="  M -7.9932567,-7.9932567   M -7.9932567,-7.9932567   M 25.05886,21.831582   C 25.05886,23.620074 23.620074,25.05886 21.831582,25.05886   C 20.053083,25.05886 18.614297,23.620074 18.614297,21.831582   C 18.614297,20.053083 20.053083,18.614297 21.831582,18.614297   C 23.620074,18.614297 25.05886,20.053083 25.05886,21.831582   z "
     style="fill:#ff0000;fill-rule:evenodd;fill-opacity:1;stroke:none;" />
  <path
     id="path108"
     d="  M 25.05886,21.831582   C 25.05886,23.620074 23.620074,25.05886 21.831582,25.05886   C 20.053083,25.05886 18.614297,23.620074 18.614297,21.831582   C 18.614297,20.053083 20.053083,18.614297 21.831582,18.614297   C 23.620074,18.614297 25.05886,20.053083 25.05886,21.831582  "
     style="fill:none;stroke:#000000;stroke-width:1.0091487px;stroke-linecap:butt;stroke-linejoin:miter;stroke-miterlimit:10;stroke-dasharray:none;stroke-opacity:1;" />
  <g
     id="g116"
     clip-path="url(#clipEmfPath11)">
    <text
       id="text114"
       y="13.499438"
       x="0.000000"
       transform="matrix(1.000000,-0.000000,0.000000,1.000000,4.156493,0.000000)"
       style="font-size:19.312500px;font-style:italic;font-variant:normal;font-weight:700;font-stretch:Condensed;line-height:125.000000%;letter-spacing:0px;word-spacing:0px;fill:#000000;fill-opacity:1;stroke:none;font-family:Times New Roman;text-align:start;text-anchor:start;"
       xml:space="preserve"><tspan
         id="tspan112"
         y="13.499438"
         x="0.000000"><tspan
           id="tspan110"
           style="fill:#000000;font-size:19.312500px;font-style:italic;font-variant:normal;font-weight:700;font-stretch:Condensed;font-family:Times New Roman;"
           dy="0.000000"
           dx="0.000000">A</tspan></tspan></text>
  </g>
  <path
     id="path118"
     d="  M -7.9932567,-7.9932567   M -7.9932567,-7.9932567   M 162.08326,158.86598   C 162.08326,160.64448 160.64448,162.08326 158.86598,162.08326   C 157.07749,162.08326 155.6387,160.64448 155.6387,158.86598   C 155.6387,157.07749 157.07749,155.6387 158.86598,155.6387   C 160.64448,155.6387 162.08326,157.07749 162.08326,158.86598   z "
     style="fill:#ff0000;fill-rule:evenodd;fill-opacity:1;stroke:none;" />
  <path
     id="path120"
     d="  M 162.08326,158.86598   C 162.08326,160.64448 160.64448,162.08326 158.86598,162.08326   C 157.07749,162.08326 155.6387,160.64448 155.6387,158.86598   C 155.6387,157.07749 157.07749,155.6387 158.86598,155.6387   C 160.64448,155.6387 162.08326,157.07749 162.08326,158.86598  "
     style="fill:none;stroke:#000000;stroke-width:1.0091487px;stroke-linecap:butt;stroke-linejoin:miter;stroke-miterlimit:10;stroke-dasharray:none;stroke-opacity:1;" />
  <g
     id="g128"
     clip-path="url(#clipEmfPath13)">
    <text
       id="text126"
       y="13.499438"
       x="0.000000"
       transform="matrix(1.000000,-0.000000,0.000000,1.000000,137.963611,158.106618)"
       style="font-size:19.312500px;font-style:italic;font-variant:normal;font-weight:700;font-stretch:Condensed;line-height:125.000000%;letter-spacing:0px;word-spacing:0px;fill:#000000;fill-opacity:1;stroke:none;font-family:Times New Roman;text-align:start;text-anchor:start;"
       xml:space="preserve"><tspan
         id="tspan124"
         y="13.499438"
         x="0.000000"><tspan
           id="tspan122"
           style="fill:#000000;font-size:19.312500px;font-style:italic;font-variant:normal;font-weight:700;font-stretch:Condensed;font-family:Times New Roman;"
           dy="0.000000"
           dx="0.000000">N</tspan></tspan></text>
  </g>
</svg>
