<?xml version="1.0" encoding="UTF-8" standalone="no"?>
<svg
   xmlns:dc="http://purl.org/dc/elements/1.1/"
   xmlns:cc="http://creativecommons.org/ns#"
   xmlns:rdf="http://www.w3.org/1999/02/22-rdf-syntax-ns#"
   xmlns:svg="http://www.w3.org/2000/svg"
   xmlns="http://www.w3.org/2000/svg"
   id="svg48"
   height="97.830002mm"
   width="124.27mm"
   version="1.0">
  <metadata
     id="metadata52">
    <rdf:RDF>
      <cc:Work
         rdf:about="">
        <dc:format>image/svg+xml</dc:format>
        <dc:type
           rdf:resource="http://purl.org/dc/dcmitype/StillImage" />
      </cc:Work>
    </rdf:RDF>
  </metadata>
  <defs
     id="defs18">
    <clipPath
       id="clipEmfPath1"
       clipPathUnits="userSpaceOnUse">
      <path
         id="path2"
         d="M 5.7551448,-7.9932567 L 4801.7092,-7.9932567 L 4801.7092,4787.9608 L 5.7551448,4787.9608 z" />
    </clipPath>
    <clipPath
       id="clipEmfPath2"
       clipPathUnits="userSpaceOnUse">
      <path
         id="path5"
         d="M 69.381468,0 L 4801.7092,0 L 4801.7092,4787.9608 L 69.381468,4787.9608 z" />
    </clipPath>
    <clipPath
       id="clipEmfPath3"
       clipPathUnits="userSpaceOnUse">
      <path
         id="path8"
         d="M 69.381468,0 L 99.755844,0 L 99.755844,25.738287 L 69.381468,25.738287 z" />
    </clipPath>
    <clipPath
       id="clipEmfPath4"
       clipPathUnits="userSpaceOnUse">
      <path
         id="path11"
         d="M 355.54006,331.40042 L 4801.7092,331.40042 L 4801.7092,4787.9608 L 355.54006,4787.9608 z" />
    </clipPath>
    <clipPath
       id="clipEmfPath5"
       clipPathUnits="userSpaceOnUse">
      <path
         id="path14"
         d="M 355.54006,331.40042 L 385.91443,331.40042 L 385.91443,357.13871 L 355.54006,357.13871 z" />
    </clipPath>
    <pattern
       y="0"
       x="0"
       height="6"
       width="6"
       patternUnits="userSpaceOnUse"
       id="EMFhbasepattern" />
  </defs>
  <path
     id="path20"
     d="  M 13.828334,266.87486   L 466.82618,266.87486  "
     style="fill:none;stroke:#00ffff;stroke-width:2.4179602px;stroke-linecap:butt;stroke-linejoin:miter;stroke-miterlimit:10;stroke-dasharray:none;stroke-opacity:1;" />
  <path
     id="path22"
     d="  M 13.828334,153.59043   L 466.82618,153.59043  "
     style="fill:none;stroke:#00ffff;stroke-width:2.4179602px;stroke-linecap:butt;stroke-linejoin:miter;stroke-miterlimit:10;stroke-dasharray:none;stroke-opacity:1;" />
  <path
     id="path24"
     d="  M 94.420345,20.222939   C 94.420345,22.001439 92.981559,23.450217 91.203059,23.450217   C 89.42456,23.450217 87.975782,22.001439 87.975782,20.222939   C 87.975782,18.44444 89.42456,16.995662 91.203059,16.995662   C 92.981559,16.995662 94.420345,18.44444 94.420345,20.222939   z "
     style="fill:#ff0000;fill-rule:evenodd;fill-opacity:1;stroke:none;" />
  <path
     id="path26"
     d="  M 94.420345,20.222939   C 94.420345,22.001439 92.981559,23.450217 91.203059,23.450217   C 89.42456,23.450217 87.975782,22.001439 87.975782,20.222939   C 87.975782,18.44444 89.42456,16.995662 91.203059,16.995662   C 92.981559,16.995662 94.420345,18.44444 94.420345,20.222939  "
     style="fill:none;stroke:#000000;stroke-width:1.0091487px;stroke-linecap:butt;stroke-linejoin:miter;stroke-miterlimit:10;stroke-dasharray:none;stroke-opacity:1;" />
  <g
     id="g34"
     clip-path="url(#clipEmfPath3)">
    <text
       id="text32"
       y="13.499438"
       x="0.000000"
       transform="matrix(1.000000,-0.000000,0.000000,1.000000,69.381468,0.000000)"
       style="font-size:19.312500px;font-style:italic;font-variant:normal;font-weight:700;font-stretch:Condensed;line-height:125.000000%;letter-spacing:0px;word-spacing:0px;fill:#000000;fill-opacity:1;stroke:none;font-family:Times New Roman;text-align:start;text-anchor:start;"
       xml:space="preserve"><tspan
         id="tspan30"
         y="13.499438"
         x="0.000000"><tspan
           id="tspan28"
           style="fill:#000000;font-size:19.312500px;font-style:italic;font-variant:normal;font-weight:700;font-stretch:Condensed;font-family:Times New Roman;"
           dy="0.000000"
           dx="0.000000">A</tspan></tspan></text>
  </g>
  <path
     id="path36"
     d="  M 5.7551448,-7.9932567   M 5.7551448,-7.9932567   M 352.36274,327.32386   C 352.36274,329.10236 350.92395,330.56113 349.14545,330.56113   C 347.36695,330.56113 345.90818,329.10236 345.90818,327.32386   C 345.90818,325.54536 347.36695,324.10658 349.14545,324.10658   C 350.92395,324.10658 352.36274,325.54536 352.36274,327.32386   z "
     style="fill:#ff0000;fill-rule:evenodd;fill-opacity:1;stroke:none;" />
  <path
     id="path38"
     d="  M 352.36274,327.32386   C 352.36274,329.10236 350.92395,330.56113 349.14545,330.56113   C 347.36695,330.56113 345.90818,329.10236 345.90818,327.32386   C 345.90818,325.54536 347.36695,324.10658 349.14545,324.10658   C 350.92395,324.10658 352.36274,325.54536 352.36274,327.32386  "
     style="fill:none;stroke:#000000;stroke-width:0.99915707px;stroke-linecap:butt;stroke-linejoin:miter;stroke-miterlimit:10;stroke-dasharray:none;stroke-opacity:1;" />
  <g
     id="g46"
     clip-path="url(#clipEmfPath5)">
    <text
       id="text44"
       y="13.499438"
       x="0.000000"
       transform="matrix(1.000000,-0.000000,0.000000,1.000000,355.540059,331.400424)"
       style="font-size:19.312500px;font-style:italic;font-variant:normal;font-weight:700;font-stretch:Condensed;line-height:125.000000%;letter-spacing:0px;word-spacing:0px;fill:#000000;fill-opacity:1;stroke:none;font-family:Times New Roman;text-align:start;text-anchor:start;"
       xml:space="preserve"><tspan
         id="tspan42"
         y="13.499438"
         x="0.000000"><tspan
           id="tspan40"
           style="fill:#000000;font-size:19.312500px;font-style:italic;font-variant:normal;font-weight:700;font-stretch:Condensed;font-family:Times New Roman;"
           dy="0.000000"
           dx="0.000000">B</tspan></tspan></text>
  </g>
</svg>
